<?xml version="1.0" encoding="utf-8" standalone="no"?>
<!DOCTYPE svg PUBLIC "-//W3C//DTD SVG 1.1//EN"
  "http://www.w3.org/Graphics/SVG/1.1/DTD/svg11.dtd">
<svg xmlns:xlink="http://www.w3.org/1999/xlink" width="504pt" height="288pt" viewBox="0 0 504 288" xmlns="http://www.w3.org/2000/svg" version="1.1">
 <metadata>
  <rdf:RDF xmlns:dc="http://purl.org/dc/elements/1.1/" xmlns:cc="http://creativecommons.org/ns#" xmlns:rdf="http://www.w3.org/1999/02/22-rdf-syntax-ns#">
   <cc:Work>
    <dc:type rdf:resource="http://purl.org/dc/dcmitype/StillImage"/>
    <dc:date>2024-03-20T19:50:39.249305</dc:date>
    <dc:format>image/svg+xml</dc:format>
    <dc:creator>
     <cc:Agent>
      <dc:title>Matplotlib v3.5.3, https://matplotlib.org/</dc:title>
     </cc:Agent>
    </dc:creator>
   </cc:Work>
  </rdf:RDF>
 </metadata>
 <defs>
  <style type="text/css">*{stroke-linejoin: round; stroke-linecap: butt}</style>
 </defs>
 <g id="figure_1">
  <g id="patch_1">
   <path d="M 0 288 
L 504 288 
L 504 0 
L 0 0 
L 0 288 
z
" style="fill: none"/>
  </g>
  <g id="axes_1">
   <g id="patch_2">
    <path d="M 63 252 
L 453.6 252 
L 453.6 34.56 
L 63 34.56 
z
" style="fill: #ffffff"/>
   </g>
   <g id="patch_3">
    <path d="M 435.845455 218.49447 
L 435.094954 218.565433 
L 434.844787 218.553606 
L 81.055442 235.27976 
L 80.805275 235.267933 
L 434.59462 218.541779 
L 434.344453 218.529952 
z
" clip-path="url(#p843c32f2aa)" style="fill: #0000ff; stroke-dasharray: 6.4,1.6,1,1.6; stroke-dashoffset: 0; stroke: #0000ff; stroke-linejoin: miter"/>
   </g>
   <g id="patch_4">
    <path d="M 435.845455 201.768316 
L 435.094954 201.839279 
L 434.844787 201.827452 
L 81.055442 218.553606 
L 80.805275 218.541779 
L 434.59462 201.815625 
L 434.344453 201.803798 
z
" clip-path="url(#p843c32f2aa)" style="fill: #ff0000; stroke: #ff0000; stroke-linejoin: miter"/>
   </g>
   <g id="patch_5">
    <path d="M 435.431691 185.028063 
L 435.194362 185.106605 
L 434.877923 185.099125 
L 81.088578 218.551432 
L 80.772139 218.543952 
L 434.561484 185.091645 
L 434.245046 185.084164 
z
" clip-path="url(#p843c32f2aa)" style="fill: #ff0000; stroke: #ff0000; stroke-linejoin: miter"/>
   </g>
   <g id="patch_6">
    <path d="M 435.105833 151.570057 
L 435.234543 151.649162 
L 434.891317 151.645105 
L 81.101971 218.549721 
L 80.758745 218.545664 
L 434.548091 151.641049 
L 434.204865 151.636992 
z
" clip-path="url(#p843c32f2aa)" style="fill: #ff0000; stroke: #ff0000; stroke-linejoin: miter"/>
   </g>
   <g id="patch_7">
    <path d="M 434.981435 118.116526 
L 435.243167 118.194894 
L 434.894192 118.192144 
L 81.104846 218.549067 
L 80.75587 218.546317 
L 434.545216 118.189394 
L 434.19624 118.186645 
z
" clip-path="url(#p843c32f2aa)" style="fill: #0000ff; stroke-dasharray: 6.4,1.6,1,1.6; stroke-dashoffset: 0; stroke: #0000ff; stroke-linejoin: miter"/>
   </g>
   <g id="patch_8">
    <path d="M 435.223155 151.571672 
L 435.223155 151.651011 
L 434.887521 151.645722 
L 81.098175 201.824183 
L 80.762541 201.818894 
L 434.551887 151.640432 
L 434.216253 151.635143 
z
" clip-path="url(#p843c32f2aa)" style="fill: #0000ff; stroke-dasharray: 6.4,1.6,1,1.6; stroke-dashoffset: 0; stroke: #0000ff; stroke-linejoin: miter"/>
   </g>
   <g id="patch_9">
    <path d="M 434.981435 101.390372 
L 435.243167 101.46874 
L 434.894192 101.46599 
L 81.104846 201.822913 
L 80.75587 201.820164 
L 434.545216 101.463241 
L 434.19624 101.460491 
z
" clip-path="url(#p843c32f2aa)" style="fill: #0000ff; stroke-dasharray: 6.4,1.6,1,1.6; stroke-dashoffset: 0; stroke: #0000ff; stroke-linejoin: miter"/>
   </g>
   <g id="patch_10">
    <path d="M 435.223155 134.845518 
L 435.223155 134.924857 
L 434.887521 134.919568 
L 81.098175 185.098029 
L 80.762541 185.09274 
L 434.551887 134.914278 
L 434.216253 134.908989 
z
" clip-path="url(#p843c32f2aa)" style="fill: #ff0000; stroke: #ff0000; stroke-linejoin: miter"/>
   </g>
   <g id="patch_11">
    <path d="M 434.981435 84.664218 
L 435.243167 84.742586 
L 434.894192 84.739836 
L 81.104846 185.096759 
L 80.75587 185.09401 
L 434.545216 84.737087 
L 434.19624 84.734337 
z
" clip-path="url(#p843c32f2aa)" style="fill: #0000ff; stroke-dasharray: 6.4,1.6,1,1.6; stroke-dashoffset: 0; stroke: #0000ff; stroke-linejoin: miter"/>
   </g>
   <g id="patch_12">
    <path d="M 434.917173 51.211467 
L 435.24629 51.289266 
L 434.895232 51.287191 
L 81.105887 185.096422 
L 80.75483 185.094347 
L 434.544175 51.285117 
L 434.193118 51.283042 
z
" clip-path="url(#p843c32f2aa)" style="fill: #0000ff; stroke-dasharray: 6.4,1.6,1,1.6; stroke-dashoffset: 0; stroke: #0000ff; stroke-linejoin: miter"/>
   </g>
   <g id="patch_13">
    <path d="M 435.845455 151.589855 
L 435.094954 151.660818 
L 434.844787 151.648991 
L 81.055442 168.375144 
L 80.805275 168.363317 
L 434.59462 151.637163 
L 434.344453 151.625336 
z
" clip-path="url(#p843c32f2aa)" style="fill: #0000ff; stroke-dasharray: 6.4,1.6,1,1.6; stroke-dashoffset: 0; stroke: #0000ff; stroke-linejoin: miter"/>
   </g>
   <g id="patch_14">
    <path d="M 434.981435 67.938064 
L 435.243167 68.016432 
L 434.894192 68.013683 
L 81.104846 168.370606 
L 80.75587 168.367856 
L 434.545216 68.010933 
L 434.19624 68.008183 
z
" clip-path="url(#p843c32f2aa)" style="fill: #0000ff; stroke-dasharray: 6.4,1.6,1,1.6; stroke-dashoffset: 0; stroke: #0000ff; stroke-linejoin: miter"/>
   </g>
   <g id="patch_15">
    <path d="M 435.845455 168.422453 
L 434.344453 168.386972 
L 434.59462 168.375144 
L 80.805275 151.648991 
L 81.055442 151.637163 
L 434.844787 168.363317 
L 435.094954 168.35149 
z
" clip-path="url(#p843c32f2aa)" style="fill: #ff0000; stroke: #ff0000; stroke-linejoin: miter"/>
   </g>
   <g id="patch_16">
    <path d="M 434.981435 51.21191 
L 435.243167 51.290278 
L 434.894192 51.287529 
L 81.104846 151.644452 
L 80.75587 151.641702 
L 434.545216 51.284779 
L 434.19624 51.282029 
z
" clip-path="url(#p843c32f2aa)" style="fill: #0000ff; stroke-dasharray: 6.4,1.6,1,1.6; stroke-dashoffset: 0; stroke: #0000ff; stroke-linejoin: miter"/>
   </g>
   <g id="patch_17">
    <path d="M 435.845455 118.137547 
L 435.094954 118.20851 
L 434.844787 118.196683 
L 81.055442 134.922837 
L 80.805275 134.911009 
L 434.59462 118.184856 
L 434.344453 118.173028 
z
" clip-path="url(#p843c32f2aa)" style="fill: #0000ff; stroke-dasharray: 6.4,1.6,1,1.6; stroke-dashoffset: 0; stroke: #0000ff; stroke-linejoin: miter"/>
   </g>
   <g id="patch_18">
    <path d="M 434.981435 218.621936 
L 434.19624 218.551817 
L 434.545216 218.549067 
L 80.75587 118.192144 
L 81.104846 118.189394 
L 434.894192 218.546317 
L 435.243167 218.543568 
z
" clip-path="url(#p843c32f2aa)" style="fill: #0000ff; stroke-dasharray: 6.4,1.6,1,1.6; stroke-dashoffset: 0; stroke: #0000ff; stroke-linejoin: miter"/>
   </g>
   <g id="patch_19">
    <path d="M 435.845455 101.411393 
L 435.094954 101.482356 
L 434.844787 101.470529 
L 81.055442 118.196683 
L 80.805275 118.184856 
L 434.59462 101.458702 
L 434.344453 101.446875 
z
" clip-path="url(#p843c32f2aa)" style="fill: #ff0000; stroke: #ff0000; stroke-linejoin: miter"/>
   </g>
   <g id="patch_20">
    <path d="M 435.431691 84.67114 
L 435.194362 84.749682 
L 434.877923 84.742202 
L 81.088578 118.194509 
L 80.772139 118.187029 
L 434.561484 84.734721 
L 434.245046 84.727241 
z
" clip-path="url(#p843c32f2aa)" style="fill: #ff0000; stroke: #ff0000; stroke-linejoin: miter"/>
   </g>
   <g id="patch_21">
    <path d="M 435.105833 51.213133 
L 435.234543 51.292239 
L 434.891317 51.288182 
L 81.101971 118.192798 
L 80.758745 118.188741 
L 434.548091 51.284126 
L 434.204865 51.280069 
z
" clip-path="url(#p843c32f2aa)" style="fill: #ff0000; stroke: #ff0000; stroke-linejoin: miter"/>
   </g>
   <g id="patch_22">
    <path d="M 434.981435 201.895782 
L 434.19624 201.825663 
L 434.545216 201.822913 
L 80.75587 101.46599 
L 81.104846 101.463241 
L 434.894192 201.820164 
L 435.243167 201.817414 
z
" clip-path="url(#p843c32f2aa)" style="fill: #0000ff; stroke-dasharray: 6.4,1.6,1,1.6; stroke-dashoffset: 0; stroke: #0000ff; stroke-linejoin: miter"/>
   </g>
   <g id="patch_23">
    <path d="M 435.223155 51.214749 
L 435.223155 51.294088 
L 434.887521 51.288798 
L 81.098175 101.46726 
L 80.762541 101.461971 
L 434.551887 51.283509 
L 434.216253 51.27822 
z
" clip-path="url(#p843c32f2aa)" style="fill: #0000ff; stroke-dasharray: 6.4,1.6,1,1.6; stroke-dashoffset: 0; stroke: #0000ff; stroke-linejoin: miter"/>
   </g>
   <g id="patch_24">
    <path d="M 434.895516 235.348653 
L 434.192266 235.276617 
L 434.543891 235.27477 
L 80.754545 84.739385 
L 81.106171 84.737538 
L 434.895516 235.272923 
L 435.247142 235.271076 
z
" clip-path="url(#p843c32f2aa)" style="fill: #ff0000; stroke: #ff0000; stroke-linejoin: miter"/>
   </g>
   <g id="patch_25">
    <path d="M 434.981435 185.169628 
L 434.19624 185.099509 
L 434.545216 185.096759 
L 80.75587 84.739836 
L 81.104846 84.737087 
L 434.894192 185.09401 
L 435.243167 185.09126 
z
" clip-path="url(#p843c32f2aa)" style="fill: #0000ff; stroke-dasharray: 6.4,1.6,1,1.6; stroke-dashoffset: 0; stroke: #0000ff; stroke-linejoin: miter"/>
   </g>
   <g id="patch_26">
    <path d="M 435.105833 151.716097 
L 434.204865 151.649162 
L 434.548091 151.645105 
L 80.758745 84.74049 
L 81.101971 84.736433 
L 434.891317 151.641049 
L 435.234543 151.636992 
z
" clip-path="url(#p843c32f2aa)" style="fill: #0000ff; stroke-dasharray: 6.4,1.6,1,1.6; stroke-dashoffset: 0; stroke: #0000ff; stroke-linejoin: miter"/>
   </g>
   <g id="patch_27">
    <path d="M 434.981435 168.443474 
L 434.19624 168.373355 
L 434.545216 168.370606 
L 80.75587 68.013683 
L 81.104846 68.010933 
L 434.894192 168.367856 
L 435.243167 168.365106 
z
" clip-path="url(#p843c32f2aa)" style="fill: #0000ff; stroke-dasharray: 6.4,1.6,1,1.6; stroke-dashoffset: 0; stroke: #0000ff; stroke-linejoin: miter"/>
   </g>
   <g id="patch_28">
    <path d="M 435.845455 51.232932 
L 435.094954 51.303895 
L 434.844787 51.292067 
L 81.055442 68.018221 
L 80.805275 68.006394 
L 434.59462 51.28024 
L 434.344453 51.268413 
z
" clip-path="url(#p843c32f2aa)" style="fill: #0000ff; stroke-dasharray: 6.4,1.6,1,1.6; stroke-dashoffset: 0; stroke: #0000ff; stroke-linejoin: miter"/>
   </g>
   <g id="patch_29">
    <path d="M 434.981435 151.717321 
L 434.19624 151.647202 
L 434.545216 151.644452 
L 80.75587 51.287529 
L 81.104846 51.284779 
L 434.894192 151.641702 
L 435.243167 151.638952 
z
" clip-path="url(#p843c32f2aa)" style="fill: #0000ff; stroke-dasharray: 6.4,1.6,1,1.6; stroke-dashoffset: 0; stroke: #0000ff; stroke-linejoin: miter"/>
   </g>
   <g id="patch_30">
    <path d="M 435.845455 68.06553 
L 434.344453 68.030048 
L 434.59462 68.018221 
L 80.805275 51.292067 
L 81.055442 51.28024 
L 434.844787 68.006394 
L 435.094954 67.994567 
z
" clip-path="url(#p843c32f2aa)" style="fill: #ff0000; stroke: #ff0000; stroke-linejoin: miter"/>
   </g>
   <g id="matplotlib.axis_1">
    <g id="xtick_1">
     <g id="line2d_1">
      <defs>
       <path id="m9174559e61" d="M 0 0 
L 0 3.5 
" style="stroke: #000000; stroke-width: 0.8"/>
      </defs>
      <g>
       <use xlink:href="#m9174559e61" x="80.930358" y="252" style="stroke: #000000; stroke-width: 0.8"/>
      </g>
     </g>
     <g id="text_1">
      <!-- Source -->
      <g transform="translate(63.759264 266.598437)scale(0.1 -0.1)">
       <defs>
        <path id="DejaVuSans-53" d="M 3425 4513 
L 3425 3897 
Q 3066 4069 2747 4153 
Q 2428 4238 2131 4238 
Q 1616 4238 1336 4038 
Q 1056 3838 1056 3469 
Q 1056 3159 1242 3001 
Q 1428 2844 1947 2747 
L 2328 2669 
Q 3034 2534 3370 2195 
Q 3706 1856 3706 1288 
Q 3706 609 3251 259 
Q 2797 -91 1919 -91 
Q 1588 -91 1214 -16 
Q 841 59 441 206 
L 441 856 
Q 825 641 1194 531 
Q 1563 422 1919 422 
Q 2459 422 2753 634 
Q 3047 847 3047 1241 
Q 3047 1584 2836 1778 
Q 2625 1972 2144 2069 
L 1759 2144 
Q 1053 2284 737 2584 
Q 422 2884 422 3419 
Q 422 4038 858 4394 
Q 1294 4750 2059 4750 
Q 2388 4750 2728 4690 
Q 3069 4631 3425 4513 
z
" transform="scale(0.015625)"/>
        <path id="DejaVuSans-6f" d="M 1959 3097 
Q 1497 3097 1228 2736 
Q 959 2375 959 1747 
Q 959 1119 1226 758 
Q 1494 397 1959 397 
Q 2419 397 2687 759 
Q 2956 1122 2956 1747 
Q 2956 2369 2687 2733 
Q 2419 3097 1959 3097 
z
M 1959 3584 
Q 2709 3584 3137 3096 
Q 3566 2609 3566 1747 
Q 3566 888 3137 398 
Q 2709 -91 1959 -91 
Q 1206 -91 779 398 
Q 353 888 353 1747 
Q 353 2609 779 3096 
Q 1206 3584 1959 3584 
z
" transform="scale(0.015625)"/>
        <path id="DejaVuSans-75" d="M 544 1381 
L 544 3500 
L 1119 3500 
L 1119 1403 
Q 1119 906 1312 657 
Q 1506 409 1894 409 
Q 2359 409 2629 706 
Q 2900 1003 2900 1516 
L 2900 3500 
L 3475 3500 
L 3475 0 
L 2900 0 
L 2900 538 
Q 2691 219 2414 64 
Q 2138 -91 1772 -91 
Q 1169 -91 856 284 
Q 544 659 544 1381 
z
M 1991 3584 
L 1991 3584 
z
" transform="scale(0.015625)"/>
        <path id="DejaVuSans-72" d="M 2631 2963 
Q 2534 3019 2420 3045 
Q 2306 3072 2169 3072 
Q 1681 3072 1420 2755 
Q 1159 2438 1159 1844 
L 1159 0 
L 581 0 
L 581 3500 
L 1159 3500 
L 1159 2956 
Q 1341 3275 1631 3429 
Q 1922 3584 2338 3584 
Q 2397 3584 2469 3576 
Q 2541 3569 2628 3553 
L 2631 2963 
z
" transform="scale(0.015625)"/>
        <path id="DejaVuSans-63" d="M 3122 3366 
L 3122 2828 
Q 2878 2963 2633 3030 
Q 2388 3097 2138 3097 
Q 1578 3097 1268 2742 
Q 959 2388 959 1747 
Q 959 1106 1268 751 
Q 1578 397 2138 397 
Q 2388 397 2633 464 
Q 2878 531 3122 666 
L 3122 134 
Q 2881 22 2623 -34 
Q 2366 -91 2075 -91 
Q 1284 -91 818 406 
Q 353 903 353 1747 
Q 353 2603 823 3093 
Q 1294 3584 2113 3584 
Q 2378 3584 2631 3529 
Q 2884 3475 3122 3366 
z
" transform="scale(0.015625)"/>
        <path id="DejaVuSans-65" d="M 3597 1894 
L 3597 1613 
L 953 1613 
Q 991 1019 1311 708 
Q 1631 397 2203 397 
Q 2534 397 2845 478 
Q 3156 559 3463 722 
L 3463 178 
Q 3153 47 2828 -22 
Q 2503 -91 2169 -91 
Q 1331 -91 842 396 
Q 353 884 353 1716 
Q 353 2575 817 3079 
Q 1281 3584 2069 3584 
Q 2775 3584 3186 3129 
Q 3597 2675 3597 1894 
z
M 3022 2063 
Q 3016 2534 2758 2815 
Q 2500 3097 2075 3097 
Q 1594 3097 1305 2825 
Q 1016 2553 972 2059 
L 3022 2063 
z
" transform="scale(0.015625)"/>
       </defs>
       <use xlink:href="#DejaVuSans-53"/>
       <use xlink:href="#DejaVuSans-6f" x="63.476562"/>
       <use xlink:href="#DejaVuSans-75" x="124.658203"/>
       <use xlink:href="#DejaVuSans-72" x="188.037109"/>
       <use xlink:href="#DejaVuSans-63" x="226.900391"/>
       <use xlink:href="#DejaVuSans-65" x="281.880859"/>
      </g>
     </g>
    </g>
    <g id="xtick_2">
     <g id="line2d_2">
      <g>
       <use xlink:href="#m9174559e61" x="434.719704" y="252" style="stroke: #000000; stroke-width: 0.8"/>
      </g>
     </g>
     <g id="text_2">
      <!-- Target -->
      <g transform="translate(419.247829 266.598437)scale(0.1 -0.1)">
       <defs>
        <path id="DejaVuSans-54" d="M -19 4666 
L 3928 4666 
L 3928 4134 
L 2272 4134 
L 2272 0 
L 1638 0 
L 1638 4134 
L -19 4134 
L -19 4666 
z
" transform="scale(0.015625)"/>
        <path id="DejaVuSans-61" d="M 2194 1759 
Q 1497 1759 1228 1600 
Q 959 1441 959 1056 
Q 959 750 1161 570 
Q 1363 391 1709 391 
Q 2188 391 2477 730 
Q 2766 1069 2766 1631 
L 2766 1759 
L 2194 1759 
z
M 3341 1997 
L 3341 0 
L 2766 0 
L 2766 531 
Q 2569 213 2275 61 
Q 1981 -91 1556 -91 
Q 1019 -91 701 211 
Q 384 513 384 1019 
Q 384 1609 779 1909 
Q 1175 2209 1959 2209 
L 2766 2209 
L 2766 2266 
Q 2766 2663 2505 2880 
Q 2244 3097 1772 3097 
Q 1472 3097 1187 3025 
Q 903 2953 641 2809 
L 641 3341 
Q 956 3463 1253 3523 
Q 1550 3584 1831 3584 
Q 2591 3584 2966 3190 
Q 3341 2797 3341 1997 
z
" transform="scale(0.015625)"/>
        <path id="DejaVuSans-67" d="M 2906 1791 
Q 2906 2416 2648 2759 
Q 2391 3103 1925 3103 
Q 1463 3103 1205 2759 
Q 947 2416 947 1791 
Q 947 1169 1205 825 
Q 1463 481 1925 481 
Q 2391 481 2648 825 
Q 2906 1169 2906 1791 
z
M 3481 434 
Q 3481 -459 3084 -895 
Q 2688 -1331 1869 -1331 
Q 1566 -1331 1297 -1286 
Q 1028 -1241 775 -1147 
L 775 -588 
Q 1028 -725 1275 -790 
Q 1522 -856 1778 -856 
Q 2344 -856 2625 -561 
Q 2906 -266 2906 331 
L 2906 616 
Q 2728 306 2450 153 
Q 2172 0 1784 0 
Q 1141 0 747 490 
Q 353 981 353 1791 
Q 353 2603 747 3093 
Q 1141 3584 1784 3584 
Q 2172 3584 2450 3431 
Q 2728 3278 2906 2969 
L 2906 3500 
L 3481 3500 
L 3481 434 
z
" transform="scale(0.015625)"/>
        <path id="DejaVuSans-74" d="M 1172 4494 
L 1172 3500 
L 2356 3500 
L 2356 3053 
L 1172 3053 
L 1172 1153 
Q 1172 725 1289 603 
Q 1406 481 1766 481 
L 2356 481 
L 2356 0 
L 1766 0 
Q 1100 0 847 248 
Q 594 497 594 1153 
L 594 3053 
L 172 3053 
L 172 3500 
L 594 3500 
L 594 4494 
L 1172 4494 
z
" transform="scale(0.015625)"/>
       </defs>
       <use xlink:href="#DejaVuSans-54"/>
       <use xlink:href="#DejaVuSans-61" x="44.583984"/>
       <use xlink:href="#DejaVuSans-72" x="105.863281"/>
       <use xlink:href="#DejaVuSans-67" x="145.226562"/>
       <use xlink:href="#DejaVuSans-65" x="208.703125"/>
       <use xlink:href="#DejaVuSans-74" x="270.226562"/>
      </g>
     </g>
    </g>
    <g id="text_3">
     <!-- Source neuron index -->
     <g transform="translate(206.685156 280.276563)scale(0.1 -0.1)">
      <defs>
       <path id="DejaVuSans-20" transform="scale(0.015625)"/>
       <path id="DejaVuSans-6e" d="M 3513 2113 
L 3513 0 
L 2938 0 
L 2938 2094 
Q 2938 2591 2744 2837 
Q 2550 3084 2163 3084 
Q 1697 3084 1428 2787 
Q 1159 2491 1159 1978 
L 1159 0 
L 581 0 
L 581 3500 
L 1159 3500 
L 1159 2956 
Q 1366 3272 1645 3428 
Q 1925 3584 2291 3584 
Q 2894 3584 3203 3211 
Q 3513 2838 3513 2113 
z
" transform="scale(0.015625)"/>
       <path id="DejaVuSans-69" d="M 603 3500 
L 1178 3500 
L 1178 0 
L 603 0 
L 603 3500 
z
M 603 4863 
L 1178 4863 
L 1178 4134 
L 603 4134 
L 603 4863 
z
" transform="scale(0.015625)"/>
       <path id="DejaVuSans-64" d="M 2906 2969 
L 2906 4863 
L 3481 4863 
L 3481 0 
L 2906 0 
L 2906 525 
Q 2725 213 2448 61 
Q 2172 -91 1784 -91 
Q 1150 -91 751 415 
Q 353 922 353 1747 
Q 353 2572 751 3078 
Q 1150 3584 1784 3584 
Q 2172 3584 2448 3432 
Q 2725 3281 2906 2969 
z
M 947 1747 
Q 947 1113 1208 752 
Q 1469 391 1925 391 
Q 2381 391 2643 752 
Q 2906 1113 2906 1747 
Q 2906 2381 2643 2742 
Q 2381 3103 1925 3103 
Q 1469 3103 1208 2742 
Q 947 2381 947 1747 
z
" transform="scale(0.015625)"/>
       <path id="DejaVuSans-78" d="M 3513 3500 
L 2247 1797 
L 3578 0 
L 2900 0 
L 1881 1375 
L 863 0 
L 184 0 
L 1544 1831 
L 300 3500 
L 978 3500 
L 1906 2253 
L 2834 3500 
L 3513 3500 
z
" transform="scale(0.015625)"/>
      </defs>
      <use xlink:href="#DejaVuSans-53"/>
      <use xlink:href="#DejaVuSans-6f" x="63.476562"/>
      <use xlink:href="#DejaVuSans-75" x="124.658203"/>
      <use xlink:href="#DejaVuSans-72" x="188.037109"/>
      <use xlink:href="#DejaVuSans-63" x="226.900391"/>
      <use xlink:href="#DejaVuSans-65" x="281.880859"/>
      <use xlink:href="#DejaVuSans-20" x="343.404297"/>
      <use xlink:href="#DejaVuSans-6e" x="375.191406"/>
      <use xlink:href="#DejaVuSans-65" x="438.570312"/>
      <use xlink:href="#DejaVuSans-75" x="500.09375"/>
      <use xlink:href="#DejaVuSans-72" x="563.472656"/>
      <use xlink:href="#DejaVuSans-6f" x="602.335938"/>
      <use xlink:href="#DejaVuSans-6e" x="663.517578"/>
      <use xlink:href="#DejaVuSans-20" x="726.896484"/>
      <use xlink:href="#DejaVuSans-69" x="758.683594"/>
      <use xlink:href="#DejaVuSans-6e" x="786.466797"/>
      <use xlink:href="#DejaVuSans-64" x="849.845703"/>
      <use xlink:href="#DejaVuSans-65" x="913.322266"/>
      <use xlink:href="#DejaVuSans-78" x="973.095703"/>
     </g>
    </g>
   </g>
   <g id="matplotlib.axis_2">
    <g id="ytick_1">
     <g id="line2d_3">
      <defs>
       <path id="m0b8ff77b3e" d="M 0 0 
L -3.5 0 
" style="stroke: #000000; stroke-width: 0.8"/>
      </defs>
      <g>
       <use xlink:href="#m0b8ff77b3e" x="63" y="235.273846" style="stroke: #000000; stroke-width: 0.8"/>
      </g>
     </g>
     <g id="text_4">
      <!-- 0 -->
      <g transform="translate(49.6375 239.073065)scale(0.1 -0.1)">
       <defs>
        <path id="DejaVuSans-30" d="M 2034 4250 
Q 1547 4250 1301 3770 
Q 1056 3291 1056 2328 
Q 1056 1369 1301 889 
Q 1547 409 2034 409 
Q 2525 409 2770 889 
Q 3016 1369 3016 2328 
Q 3016 3291 2770 3770 
Q 2525 4250 2034 4250 
z
M 2034 4750 
Q 2819 4750 3233 4129 
Q 3647 3509 3647 2328 
Q 3647 1150 3233 529 
Q 2819 -91 2034 -91 
Q 1250 -91 836 529 
Q 422 1150 422 2328 
Q 422 3509 836 4129 
Q 1250 4750 2034 4750 
z
" transform="scale(0.015625)"/>
       </defs>
       <use xlink:href="#DejaVuSans-30"/>
      </g>
     </g>
    </g>
    <g id="ytick_2">
     <g id="line2d_4">
      <g>
       <use xlink:href="#m0b8ff77b3e" x="63" y="201.821538" style="stroke: #000000; stroke-width: 0.8"/>
      </g>
     </g>
     <g id="text_5">
      <!-- 2 -->
      <g transform="translate(49.6375 205.620757)scale(0.1 -0.1)">
       <defs>
        <path id="DejaVuSans-32" d="M 1228 531 
L 3431 531 
L 3431 0 
L 469 0 
L 469 531 
Q 828 903 1448 1529 
Q 2069 2156 2228 2338 
Q 2531 2678 2651 2914 
Q 2772 3150 2772 3378 
Q 2772 3750 2511 3984 
Q 2250 4219 1831 4219 
Q 1534 4219 1204 4116 
Q 875 4013 500 3803 
L 500 4441 
Q 881 4594 1212 4672 
Q 1544 4750 1819 4750 
Q 2544 4750 2975 4387 
Q 3406 4025 3406 3419 
Q 3406 3131 3298 2873 
Q 3191 2616 2906 2266 
Q 2828 2175 2409 1742 
Q 1991 1309 1228 531 
z
" transform="scale(0.015625)"/>
       </defs>
       <use xlink:href="#DejaVuSans-32"/>
      </g>
     </g>
    </g>
    <g id="ytick_3">
     <g id="line2d_5">
      <g>
       <use xlink:href="#m0b8ff77b3e" x="63" y="168.369231" style="stroke: #000000; stroke-width: 0.8"/>
      </g>
     </g>
     <g id="text_6">
      <!-- 4 -->
      <g transform="translate(49.6375 172.16845)scale(0.1 -0.1)">
       <defs>
        <path id="DejaVuSans-34" d="M 2419 4116 
L 825 1625 
L 2419 1625 
L 2419 4116 
z
M 2253 4666 
L 3047 4666 
L 3047 1625 
L 3713 1625 
L 3713 1100 
L 3047 1100 
L 3047 0 
L 2419 0 
L 2419 1100 
L 313 1100 
L 313 1709 
L 2253 4666 
z
" transform="scale(0.015625)"/>
       </defs>
       <use xlink:href="#DejaVuSans-34"/>
      </g>
     </g>
    </g>
    <g id="ytick_4">
     <g id="line2d_6">
      <g>
       <use xlink:href="#m0b8ff77b3e" x="63" y="134.916923" style="stroke: #000000; stroke-width: 0.8"/>
      </g>
     </g>
     <g id="text_7">
      <!-- 6 -->
      <g transform="translate(49.6375 138.716142)scale(0.1 -0.1)">
       <defs>
        <path id="DejaVuSans-36" d="M 2113 2584 
Q 1688 2584 1439 2293 
Q 1191 2003 1191 1497 
Q 1191 994 1439 701 
Q 1688 409 2113 409 
Q 2538 409 2786 701 
Q 3034 994 3034 1497 
Q 3034 2003 2786 2293 
Q 2538 2584 2113 2584 
z
M 3366 4563 
L 3366 3988 
Q 3128 4100 2886 4159 
Q 2644 4219 2406 4219 
Q 1781 4219 1451 3797 
Q 1122 3375 1075 2522 
Q 1259 2794 1537 2939 
Q 1816 3084 2150 3084 
Q 2853 3084 3261 2657 
Q 3669 2231 3669 1497 
Q 3669 778 3244 343 
Q 2819 -91 2113 -91 
Q 1303 -91 875 529 
Q 447 1150 447 2328 
Q 447 3434 972 4092 
Q 1497 4750 2381 4750 
Q 2619 4750 2861 4703 
Q 3103 4656 3366 4563 
z
" transform="scale(0.015625)"/>
       </defs>
       <use xlink:href="#DejaVuSans-36"/>
      </g>
     </g>
    </g>
    <g id="ytick_5">
     <g id="line2d_7">
      <g>
       <use xlink:href="#m0b8ff77b3e" x="63" y="101.464615" style="stroke: #000000; stroke-width: 0.8"/>
      </g>
     </g>
     <g id="text_8">
      <!-- 8 -->
      <g transform="translate(49.6375 105.263834)scale(0.1 -0.1)">
       <defs>
        <path id="DejaVuSans-38" d="M 2034 2216 
Q 1584 2216 1326 1975 
Q 1069 1734 1069 1313 
Q 1069 891 1326 650 
Q 1584 409 2034 409 
Q 2484 409 2743 651 
Q 3003 894 3003 1313 
Q 3003 1734 2745 1975 
Q 2488 2216 2034 2216 
z
M 1403 2484 
Q 997 2584 770 2862 
Q 544 3141 544 3541 
Q 544 4100 942 4425 
Q 1341 4750 2034 4750 
Q 2731 4750 3128 4425 
Q 3525 4100 3525 3541 
Q 3525 3141 3298 2862 
Q 3072 2584 2669 2484 
Q 3125 2378 3379 2068 
Q 3634 1759 3634 1313 
Q 3634 634 3220 271 
Q 2806 -91 2034 -91 
Q 1263 -91 848 271 
Q 434 634 434 1313 
Q 434 1759 690 2068 
Q 947 2378 1403 2484 
z
M 1172 3481 
Q 1172 3119 1398 2916 
Q 1625 2713 2034 2713 
Q 2441 2713 2670 2916 
Q 2900 3119 2900 3481 
Q 2900 3844 2670 4047 
Q 2441 4250 2034 4250 
Q 1625 4250 1398 4047 
Q 1172 3844 1172 3481 
z
" transform="scale(0.015625)"/>
       </defs>
       <use xlink:href="#DejaVuSans-38"/>
      </g>
     </g>
    </g>
    <g id="ytick_6">
     <g id="line2d_8">
      <g>
       <use xlink:href="#m0b8ff77b3e" x="63" y="68.012308" style="stroke: #000000; stroke-width: 0.8"/>
      </g>
     </g>
     <g id="text_9">
      <!-- 10 -->
      <g transform="translate(43.275 71.811526)scale(0.1 -0.1)">
       <defs>
        <path id="DejaVuSans-31" d="M 794 531 
L 1825 531 
L 1825 4091 
L 703 3866 
L 703 4441 
L 1819 4666 
L 2450 4666 
L 2450 531 
L 3481 531 
L 3481 0 
L 794 0 
L 794 531 
z
" transform="scale(0.015625)"/>
       </defs>
       <use xlink:href="#DejaVuSans-31"/>
       <use xlink:href="#DejaVuSans-30" x="63.623047"/>
      </g>
     </g>
    </g>
    <g id="ytick_7">
     <g id="line2d_9">
      <g>
       <use xlink:href="#m0b8ff77b3e" x="63" y="34.56" style="stroke: #000000; stroke-width: 0.8"/>
      </g>
     </g>
     <g id="text_10">
      <!-- 12 -->
      <g transform="translate(43.275 38.359219)scale(0.1 -0.1)">
       <use xlink:href="#DejaVuSans-31"/>
       <use xlink:href="#DejaVuSans-32" x="63.623047"/>
      </g>
     </g>
    </g>
    <g id="text_11">
     <!-- Target neuron index -->
     <g transform="translate(37.195312 193.195625)rotate(-90)scale(0.1 -0.1)">
      <use xlink:href="#DejaVuSans-54"/>
      <use xlink:href="#DejaVuSans-61" x="44.583984"/>
      <use xlink:href="#DejaVuSans-72" x="105.863281"/>
      <use xlink:href="#DejaVuSans-67" x="145.226562"/>
      <use xlink:href="#DejaVuSans-65" x="208.703125"/>
      <use xlink:href="#DejaVuSans-74" x="270.226562"/>
      <use xlink:href="#DejaVuSans-20" x="309.435547"/>
      <use xlink:href="#DejaVuSans-6e" x="341.222656"/>
      <use xlink:href="#DejaVuSans-65" x="404.601562"/>
      <use xlink:href="#DejaVuSans-75" x="466.125"/>
      <use xlink:href="#DejaVuSans-72" x="529.503906"/>
      <use xlink:href="#DejaVuSans-6f" x="568.367188"/>
      <use xlink:href="#DejaVuSans-6e" x="629.548828"/>
      <use xlink:href="#DejaVuSans-20" x="692.927734"/>
      <use xlink:href="#DejaVuSans-69" x="724.714844"/>
      <use xlink:href="#DejaVuSans-6e" x="752.498047"/>
      <use xlink:href="#DejaVuSans-64" x="815.876953"/>
      <use xlink:href="#DejaVuSans-65" x="879.353516"/>
      <use xlink:href="#DejaVuSans-78" x="939.126953"/>
     </g>
    </g>
   </g>
   <g id="line2d_10">
    <defs>
     <path id="m8727ef3ae9" d="M 0 7.5 
C 1.989023 7.5 3.896849 6.709753 5.303301 5.303301 
C 6.709753 3.896849 7.5 1.989023 7.5 0 
C 7.5 -1.989023 6.709753 -3.896849 5.303301 -5.303301 
C 3.896849 -6.709753 1.989023 -7.5 0 -7.5 
C -1.989023 -7.5 -3.896849 -6.709753 -5.303301 -5.303301 
C -6.709753 -3.896849 -7.5 -1.989023 -7.5 0 
C -7.5 1.989023 -6.709753 3.896849 -5.303301 5.303301 
C -3.896849 6.709753 -1.989023 7.5 0 7.5 
z
" style="stroke: #000000"/>
    </defs>
    <g clip-path="url(#p843c32f2aa)">
     <use xlink:href="#m8727ef3ae9" x="80.930358" y="235.273846" style="stroke: #000000"/>
     <use xlink:href="#m8727ef3ae9" x="80.930358" y="218.547692" style="stroke: #000000"/>
     <use xlink:href="#m8727ef3ae9" x="80.930358" y="201.821538" style="stroke: #000000"/>
     <use xlink:href="#m8727ef3ae9" x="80.930358" y="185.095385" style="stroke: #000000"/>
     <use xlink:href="#m8727ef3ae9" x="80.930358" y="168.369231" style="stroke: #000000"/>
     <use xlink:href="#m8727ef3ae9" x="80.930358" y="151.643077" style="stroke: #000000"/>
     <use xlink:href="#m8727ef3ae9" x="80.930358" y="134.916923" style="stroke: #000000"/>
     <use xlink:href="#m8727ef3ae9" x="80.930358" y="118.190769" style="stroke: #000000"/>
     <use xlink:href="#m8727ef3ae9" x="80.930358" y="101.464615" style="stroke: #000000"/>
     <use xlink:href="#m8727ef3ae9" x="80.930358" y="84.738462" style="stroke: #000000"/>
     <use xlink:href="#m8727ef3ae9" x="80.930358" y="68.012308" style="stroke: #000000"/>
     <use xlink:href="#m8727ef3ae9" x="80.930358" y="51.286154" style="stroke: #000000"/>
    </g>
   </g>
   <g id="line2d_11">
    <g clip-path="url(#p843c32f2aa)">
     <use xlink:href="#m8727ef3ae9" x="434.719704" y="235.273846" style="stroke: #000000"/>
     <use xlink:href="#m8727ef3ae9" x="434.719704" y="218.547692" style="stroke: #000000"/>
     <use xlink:href="#m8727ef3ae9" x="434.719704" y="201.821538" style="stroke: #000000"/>
     <use xlink:href="#m8727ef3ae9" x="434.719704" y="185.095385" style="stroke: #000000"/>
     <use xlink:href="#m8727ef3ae9" x="434.719704" y="168.369231" style="stroke: #000000"/>
     <use xlink:href="#m8727ef3ae9" x="434.719704" y="151.643077" style="stroke: #000000"/>
     <use xlink:href="#m8727ef3ae9" x="434.719704" y="134.916923" style="stroke: #000000"/>
     <use xlink:href="#m8727ef3ae9" x="434.719704" y="118.190769" style="stroke: #000000"/>
     <use xlink:href="#m8727ef3ae9" x="434.719704" y="101.464615" style="stroke: #000000"/>
     <use xlink:href="#m8727ef3ae9" x="434.719704" y="84.738462" style="stroke: #000000"/>
     <use xlink:href="#m8727ef3ae9" x="434.719704" y="68.012308" style="stroke: #000000"/>
     <use xlink:href="#m8727ef3ae9" x="434.719704" y="51.286154" style="stroke: #000000"/>
    </g>
   </g>
   <g id="patch_31">
    <path d="M 63 252 
L 63 34.56 
" style="fill: none; stroke: #000000; stroke-width: 0.8; stroke-linejoin: miter; stroke-linecap: square"/>
   </g>
   <g id="patch_32">
    <path d="M 453.6 252 
L 453.6 34.56 
" style="fill: none; stroke: #000000; stroke-width: 0.8; stroke-linejoin: miter; stroke-linecap: square"/>
   </g>
   <g id="patch_33">
    <path d="M 63 252 
L 453.6 252 
" style="fill: none; stroke: #000000; stroke-width: 0.8; stroke-linejoin: miter; stroke-linecap: square"/>
   </g>
   <g id="patch_34">
    <path d="M 63 34.56 
L 453.6 34.56 
" style="fill: none; stroke: #000000; stroke-width: 0.8; stroke-linejoin: miter; stroke-linecap: square"/>
   </g>
   <g id="text_12">
    <!-- $NMS \rightarrow NMS$ links -->
    <g transform="translate(208.32 28.56)scale(0.12 -0.12)">
     <defs>
      <path id="DejaVuSans-Oblique-4e" d="M 1081 4666 
L 1931 4666 
L 3219 666 
L 4000 4666 
L 4616 4666 
L 3706 0 
L 2853 0 
L 1569 4025 
L 788 0 
L 172 0 
L 1081 4666 
z
" transform="scale(0.015625)"/>
      <path id="DejaVuSans-Oblique-4d" d="M 1081 4666 
L 2028 4666 
L 2572 1522 
L 4378 4666 
L 5350 4666 
L 4441 0 
L 3828 0 
L 4622 4091 
L 2791 897 
L 2175 897 
L 1581 4103 
L 788 0 
L 172 0 
L 1081 4666 
z
" transform="scale(0.015625)"/>
      <path id="DejaVuSans-Oblique-53" d="M 3859 4513 
L 3738 3897 
Q 3422 4066 3111 4152 
Q 2800 4238 2509 4238 
Q 1944 4238 1609 3991 
Q 1275 3744 1275 3334 
Q 1275 3109 1398 2989 
Q 1522 2869 2034 2731 
L 2413 2638 
Q 3053 2472 3303 2217 
Q 3553 1963 3553 1503 
Q 3553 797 2998 353 
Q 2444 -91 1538 -91 
Q 1166 -91 791 -17 
Q 416 56 38 206 
L 166 856 
Q 513 641 861 531 
Q 1209 422 1556 422 
Q 2147 422 2503 684 
Q 2859 947 2859 1369 
Q 2859 1650 2717 1795 
Q 2575 1941 2106 2059 
L 1728 2156 
Q 1081 2325 845 2545 
Q 609 2766 609 3163 
Q 609 3859 1145 4304 
Q 1681 4750 2541 4750 
Q 2875 4750 3203 4690 
Q 3531 4631 3859 4513 
z
" transform="scale(0.015625)"/>
      <path id="DejaVuSans-2192" d="M 5050 2147 
L 5050 1866 
L 3822 638 
L 3447 1013 
L 4175 1741 
L 366 1741 
L 366 2272 
L 4175 2272 
L 3447 3000 
L 3822 3375 
L 5050 2147 
z
" transform="scale(0.015625)"/>
      <path id="DejaVuSans-6c" d="M 603 4863 
L 1178 4863 
L 1178 0 
L 603 0 
L 603 4863 
z
" transform="scale(0.015625)"/>
      <path id="DejaVuSans-6b" d="M 581 4863 
L 1159 4863 
L 1159 1991 
L 2875 3500 
L 3609 3500 
L 1753 1863 
L 3688 0 
L 2938 0 
L 1159 1709 
L 1159 0 
L 581 0 
L 581 4863 
z
" transform="scale(0.015625)"/>
      <path id="DejaVuSans-73" d="M 2834 3397 
L 2834 2853 
Q 2591 2978 2328 3040 
Q 2066 3103 1784 3103 
Q 1356 3103 1142 2972 
Q 928 2841 928 2578 
Q 928 2378 1081 2264 
Q 1234 2150 1697 2047 
L 1894 2003 
Q 2506 1872 2764 1633 
Q 3022 1394 3022 966 
Q 3022 478 2636 193 
Q 2250 -91 1575 -91 
Q 1294 -91 989 -36 
Q 684 19 347 128 
L 347 722 
Q 666 556 975 473 
Q 1284 391 1588 391 
Q 1994 391 2212 530 
Q 2431 669 2431 922 
Q 2431 1156 2273 1281 
Q 2116 1406 1581 1522 
L 1381 1569 
Q 847 1681 609 1914 
Q 372 2147 372 2553 
Q 372 3047 722 3315 
Q 1072 3584 1716 3584 
Q 2034 3584 2315 3537 
Q 2597 3491 2834 3397 
z
" transform="scale(0.015625)"/>
     </defs>
     <use xlink:href="#DejaVuSans-Oblique-4e" transform="translate(0 0.015625)"/>
     <use xlink:href="#DejaVuSans-Oblique-4d" transform="translate(74.804688 0.015625)"/>
     <use xlink:href="#DejaVuSans-Oblique-53" transform="translate(161.083984 0.015625)"/>
     <use xlink:href="#DejaVuSans-2192" transform="translate(244.042969 0.015625)"/>
     <use xlink:href="#DejaVuSans-Oblique-4e" transform="translate(347.314453 0.015625)"/>
     <use xlink:href="#DejaVuSans-Oblique-4d" transform="translate(422.119141 0.015625)"/>
     <use xlink:href="#DejaVuSans-Oblique-53" transform="translate(508.398438 0.015625)"/>
     <use xlink:href="#DejaVuSans-20" transform="translate(571.875 0.015625)"/>
     <use xlink:href="#DejaVuSans-6c" transform="translate(603.662109 0.015625)"/>
     <use xlink:href="#DejaVuSans-69" transform="translate(631.445312 0.015625)"/>
     <use xlink:href="#DejaVuSans-6e" transform="translate(659.228516 0.015625)"/>
     <use xlink:href="#DejaVuSans-6b" transform="translate(722.607422 0.015625)"/>
     <use xlink:href="#DejaVuSans-73" transform="translate(780.517578 0.015625)"/>
    </g>
   </g>
  </g>
 </g>
 <defs>
  <clipPath id="p843c32f2aa">
   <rect x="63" y="34.56" width="390.6" height="217.44"/>
  </clipPath>
 </defs>
</svg>
