<?xml version="1.0" encoding="utf-8" standalone="no"?>
<!DOCTYPE svg PUBLIC "-//W3C//DTD SVG 1.1//EN"
  "http://www.w3.org/Graphics/SVG/1.1/DTD/svg11.dtd">
<svg xmlns:xlink="http://www.w3.org/1999/xlink" width="460.8pt" height="345.6pt" viewBox="0 0 460.8 345.6" xmlns="http://www.w3.org/2000/svg" version="1.1">
 <metadata>
  <rdf:RDF xmlns:dc="http://purl.org/dc/elements/1.1/" xmlns:cc="http://creativecommons.org/ns#" xmlns:rdf="http://www.w3.org/1999/02/22-rdf-syntax-ns#">
   <cc:Work>
    <dc:type rdf:resource="http://purl.org/dc/dcmitype/StillImage"/>
    <dc:date>2024-03-29T14:40:08.311676</dc:date>
    <dc:format>image/svg+xml</dc:format>
    <dc:creator>
     <cc:Agent>
      <dc:title>Matplotlib v3.5.3, https://matplotlib.org/</dc:title>
     </cc:Agent>
    </dc:creator>
   </cc:Work>
  </rdf:RDF>
 </metadata>
 <defs>
  <style type="text/css">*{stroke-linejoin: round; stroke-linecap: butt}</style>
 </defs>
 <g id="figure_1">
  <g id="patch_1">
   <path d="M 0 345.6 
L 460.8 345.6 
L 460.8 0 
L 0 0 
z
" style="fill: #ffffff"/>
  </g>
  <g id="axes_1">
   <g id="patch_2">
    <path d="M 57.6 307.584 
L 414.72 307.584 
L 414.72 41.472 
L 57.6 41.472 
z
" style="fill: #ffffff"/>
   </g>
   <g id="PathCollection_1">
    <defs>
     <path id="m1fabbbb16f" d="M 0 0.273861 
C 0.072629 0.273861 0.142293 0.245006 0.193649 0.193649 
C 0.245006 0.142293 0.273861 0.072629 0.273861 0 
C 0.273861 -0.072629 0.245006 -0.142293 0.193649 -0.193649 
C 0.142293 -0.245006 0.072629 -0.273861 0 -0.273861 
C -0.072629 -0.273861 -0.142293 -0.245006 -0.193649 -0.193649 
C -0.245006 -0.142293 -0.273861 -0.072629 -0.273861 0 
C -0.273861 0.072629 -0.245006 0.142293 -0.193649 0.193649 
C -0.142293 0.245006 -0.072629 0.273861 0 0.273861 
z
" style="stroke: #1f77b4"/>
    </defs>
    <g clip-path="url(#pcdc02610bd)">
     <use xlink:href="#m1fabbbb16f" x="76.864858" y="120.013731" style="fill: #1f77b4; stroke: #1f77b4"/>
     <use xlink:href="#m1fabbbb16f" x="88.127057" y="120.013731" style="fill: #1f77b4; stroke: #1f77b4"/>
     <use xlink:href="#m1fabbbb16f" x="100.255579" y="120.013731" style="fill: #1f77b4; stroke: #1f77b4"/>
     <use xlink:href="#m1fabbbb16f" x="103.720871" y="117.798873" style="fill: #1f77b4; stroke: #1f77b4"/>
     <use xlink:href="#m1fabbbb16f" x="112.384101" y="120.013731" style="fill: #1f77b4; stroke: #1f77b4"/>
     <use xlink:href="#m1fabbbb16f" x="124.512623" y="120.013731" style="fill: #1f77b4; stroke: #1f77b4"/>
     <use xlink:href="#m1fabbbb16f" x="136.641145" y="120.013731" style="fill: #1f77b4; stroke: #1f77b4"/>
     <use xlink:href="#m1fabbbb16f" x="148.769667" y="120.013731" style="fill: #1f77b4; stroke: #1f77b4"/>
     <use xlink:href="#m1fabbbb16f" x="160.898189" y="120.013731" style="fill: #1f77b4; stroke: #1f77b4"/>
     <use xlink:href="#m1fabbbb16f" x="173.026711" y="120.013731" style="fill: #1f77b4; stroke: #1f77b4"/>
     <use xlink:href="#m1fabbbb16f" x="185.155233" y="120.013731" style="fill: #1f77b4; stroke: #1f77b4"/>
     <use xlink:href="#m1fabbbb16f" x="197.283755" y="120.013731" style="fill: #1f77b4; stroke: #1f77b4"/>
     <use xlink:href="#m1fabbbb16f" x="209.412277" y="120.013731" style="fill: #1f77b4; stroke: #1f77b4"/>
     <use xlink:href="#m1fabbbb16f" x="221.540799" y="120.013731" style="fill: #1f77b4; stroke: #1f77b4"/>
     <use xlink:href="#m1fabbbb16f" x="233.669321" y="120.013731" style="fill: #1f77b4; stroke: #1f77b4"/>
     <use xlink:href="#m1fabbbb16f" x="245.797843" y="120.013731" style="fill: #1f77b4; stroke: #1f77b4"/>
     <use xlink:href="#m1fabbbb16f" x="257.926365" y="120.013731" style="fill: #1f77b4; stroke: #1f77b4"/>
     <use xlink:href="#m1fabbbb16f" x="270.054888" y="120.013731" style="fill: #1f77b4; stroke: #1f77b4"/>
     <use xlink:href="#m1fabbbb16f" x="282.18341" y="120.013731" style="fill: #1f77b4; stroke: #1f77b4"/>
     <use xlink:href="#m1fabbbb16f" x="294.311932" y="120.013731" style="fill: #1f77b4; stroke: #1f77b4"/>
     <use xlink:href="#m1fabbbb16f" x="306.440454" y="120.013731" style="fill: #1f77b4; stroke: #1f77b4"/>
     <use xlink:href="#m1fabbbb16f" x="318.568976" y="120.013731" style="fill: #1f77b4; stroke: #1f77b4"/>
     <use xlink:href="#m1fabbbb16f" x="330.697498" y="120.013731" style="fill: #1f77b4; stroke: #1f77b4"/>
     <use xlink:href="#m1fabbbb16f" x="342.82602" y="120.013731" style="fill: #1f77b4; stroke: #1f77b4"/>
     <use xlink:href="#m1fabbbb16f" x="354.954542" y="120.013731" style="fill: #1f77b4; stroke: #1f77b4"/>
     <use xlink:href="#m1fabbbb16f" x="367.083064" y="120.013731" style="fill: #1f77b4; stroke: #1f77b4"/>
     <use xlink:href="#m1fabbbb16f" x="379.211586" y="120.013731" style="fill: #1f77b4; stroke: #1f77b4"/>
     <use xlink:href="#m1fabbbb16f" x="391.340108" y="120.013731" style="fill: #1f77b4; stroke: #1f77b4"/>
    </g>
   </g>
   <g id="matplotlib.axis_1">
    <g id="xtick_1">
     <g id="line2d_1">
      <path d="M 73.832727 307.584 
L 73.832727 41.472 
" clip-path="url(#pcdc02610bd)" style="fill: none; stroke: #b0b0b0; stroke-width: 0.8; stroke-linecap: square"/>
     </g>
     <g id="line2d_2">
      <defs>
       <path id="m5904a984e8" d="M 0 0 
L 0 3.5 
" style="stroke: #000000; stroke-width: 0.8"/>
      </defs>
      <g>
       <use xlink:href="#m5904a984e8" x="73.832727" y="307.584" style="stroke: #000000; stroke-width: 0.8"/>
      </g>
     </g>
     <g id="text_1">
      <!-- 0 -->
      <g transform="translate(70.651477 322.182437)scale(0.1 -0.1)">
       <defs>
        <path id="DejaVuSans-30" d="M 2034 4250 
Q 1547 4250 1301 3770 
Q 1056 3291 1056 2328 
Q 1056 1369 1301 889 
Q 1547 409 2034 409 
Q 2525 409 2770 889 
Q 3016 1369 3016 2328 
Q 3016 3291 2770 3770 
Q 2525 4250 2034 4250 
z
M 2034 4750 
Q 2819 4750 3233 4129 
Q 3647 3509 3647 2328 
Q 3647 1150 3233 529 
Q 2819 -91 2034 -91 
Q 1250 -91 836 529 
Q 422 1150 422 2328 
Q 422 3509 836 4129 
Q 1250 4750 2034 4750 
z
" transform="scale(0.015625)"/>
       </defs>
       <use xlink:href="#DejaVuSans-30"/>
      </g>
     </g>
    </g>
    <g id="xtick_2">
     <g id="line2d_3">
      <path d="M 138.763636 307.584 
L 138.763636 41.472 
" clip-path="url(#pcdc02610bd)" style="fill: none; stroke: #b0b0b0; stroke-width: 0.8; stroke-linecap: square"/>
     </g>
     <g id="line2d_4">
      <g>
       <use xlink:href="#m5904a984e8" x="138.763636" y="307.584" style="stroke: #000000; stroke-width: 0.8"/>
      </g>
     </g>
     <g id="text_2">
      <!-- 100 -->
      <g transform="translate(129.219886 322.182437)scale(0.1 -0.1)">
       <defs>
        <path id="DejaVuSans-31" d="M 794 531 
L 1825 531 
L 1825 4091 
L 703 3866 
L 703 4441 
L 1819 4666 
L 2450 4666 
L 2450 531 
L 3481 531 
L 3481 0 
L 794 0 
L 794 531 
z
" transform="scale(0.015625)"/>
       </defs>
       <use xlink:href="#DejaVuSans-31"/>
       <use xlink:href="#DejaVuSans-30" x="63.623047"/>
       <use xlink:href="#DejaVuSans-30" x="127.246094"/>
      </g>
     </g>
    </g>
    <g id="xtick_3">
     <g id="line2d_5">
      <path d="M 203.694545 307.584 
L 203.694545 41.472 
" clip-path="url(#pcdc02610bd)" style="fill: none; stroke: #b0b0b0; stroke-width: 0.8; stroke-linecap: square"/>
     </g>
     <g id="line2d_6">
      <g>
       <use xlink:href="#m5904a984e8" x="203.694545" y="307.584" style="stroke: #000000; stroke-width: 0.8"/>
      </g>
     </g>
     <g id="text_3">
      <!-- 200 -->
      <g transform="translate(194.150795 322.182437)scale(0.1 -0.1)">
       <defs>
        <path id="DejaVuSans-32" d="M 1228 531 
L 3431 531 
L 3431 0 
L 469 0 
L 469 531 
Q 828 903 1448 1529 
Q 2069 2156 2228 2338 
Q 2531 2678 2651 2914 
Q 2772 3150 2772 3378 
Q 2772 3750 2511 3984 
Q 2250 4219 1831 4219 
Q 1534 4219 1204 4116 
Q 875 4013 500 3803 
L 500 4441 
Q 881 4594 1212 4672 
Q 1544 4750 1819 4750 
Q 2544 4750 2975 4387 
Q 3406 4025 3406 3419 
Q 3406 3131 3298 2873 
Q 3191 2616 2906 2266 
Q 2828 2175 2409 1742 
Q 1991 1309 1228 531 
z
" transform="scale(0.015625)"/>
       </defs>
       <use xlink:href="#DejaVuSans-32"/>
       <use xlink:href="#DejaVuSans-30" x="63.623047"/>
       <use xlink:href="#DejaVuSans-30" x="127.246094"/>
      </g>
     </g>
    </g>
    <g id="xtick_4">
     <g id="line2d_7">
      <path d="M 268.625455 307.584 
L 268.625455 41.472 
" clip-path="url(#pcdc02610bd)" style="fill: none; stroke: #b0b0b0; stroke-width: 0.8; stroke-linecap: square"/>
     </g>
     <g id="line2d_8">
      <g>
       <use xlink:href="#m5904a984e8" x="268.625455" y="307.584" style="stroke: #000000; stroke-width: 0.8"/>
      </g>
     </g>
     <g id="text_4">
      <!-- 300 -->
      <g transform="translate(259.081705 322.182437)scale(0.1 -0.1)">
       <defs>
        <path id="DejaVuSans-33" d="M 2597 2516 
Q 3050 2419 3304 2112 
Q 3559 1806 3559 1356 
Q 3559 666 3084 287 
Q 2609 -91 1734 -91 
Q 1441 -91 1130 -33 
Q 819 25 488 141 
L 488 750 
Q 750 597 1062 519 
Q 1375 441 1716 441 
Q 2309 441 2620 675 
Q 2931 909 2931 1356 
Q 2931 1769 2642 2001 
Q 2353 2234 1838 2234 
L 1294 2234 
L 1294 2753 
L 1863 2753 
Q 2328 2753 2575 2939 
Q 2822 3125 2822 3475 
Q 2822 3834 2567 4026 
Q 2313 4219 1838 4219 
Q 1578 4219 1281 4162 
Q 984 4106 628 3988 
L 628 4550 
Q 988 4650 1302 4700 
Q 1616 4750 1894 4750 
Q 2613 4750 3031 4423 
Q 3450 4097 3450 3541 
Q 3450 3153 3228 2886 
Q 3006 2619 2597 2516 
z
" transform="scale(0.015625)"/>
       </defs>
       <use xlink:href="#DejaVuSans-33"/>
       <use xlink:href="#DejaVuSans-30" x="63.623047"/>
       <use xlink:href="#DejaVuSans-30" x="127.246094"/>
      </g>
     </g>
    </g>
    <g id="xtick_5">
     <g id="line2d_9">
      <path d="M 333.556364 307.584 
L 333.556364 41.472 
" clip-path="url(#pcdc02610bd)" style="fill: none; stroke: #b0b0b0; stroke-width: 0.8; stroke-linecap: square"/>
     </g>
     <g id="line2d_10">
      <g>
       <use xlink:href="#m5904a984e8" x="333.556364" y="307.584" style="stroke: #000000; stroke-width: 0.8"/>
      </g>
     </g>
     <g id="text_5">
      <!-- 400 -->
      <g transform="translate(324.012614 322.182437)scale(0.1 -0.1)">
       <defs>
        <path id="DejaVuSans-34" d="M 2419 4116 
L 825 1625 
L 2419 1625 
L 2419 4116 
z
M 2253 4666 
L 3047 4666 
L 3047 1625 
L 3713 1625 
L 3713 1100 
L 3047 1100 
L 3047 0 
L 2419 0 
L 2419 1100 
L 313 1100 
L 313 1709 
L 2253 4666 
z
" transform="scale(0.015625)"/>
       </defs>
       <use xlink:href="#DejaVuSans-34"/>
       <use xlink:href="#DejaVuSans-30" x="63.623047"/>
       <use xlink:href="#DejaVuSans-30" x="127.246094"/>
      </g>
     </g>
    </g>
    <g id="xtick_6">
     <g id="line2d_11">
      <path d="M 398.487273 307.584 
L 398.487273 41.472 
" clip-path="url(#pcdc02610bd)" style="fill: none; stroke: #b0b0b0; stroke-width: 0.8; stroke-linecap: square"/>
     </g>
     <g id="line2d_12">
      <g>
       <use xlink:href="#m5904a984e8" x="398.487273" y="307.584" style="stroke: #000000; stroke-width: 0.8"/>
      </g>
     </g>
     <g id="text_6">
      <!-- 500 -->
      <g transform="translate(388.943523 322.182437)scale(0.1 -0.1)">
       <defs>
        <path id="DejaVuSans-35" d="M 691 4666 
L 3169 4666 
L 3169 4134 
L 1269 4134 
L 1269 2991 
Q 1406 3038 1543 3061 
Q 1681 3084 1819 3084 
Q 2600 3084 3056 2656 
Q 3513 2228 3513 1497 
Q 3513 744 3044 326 
Q 2575 -91 1722 -91 
Q 1428 -91 1123 -41 
Q 819 9 494 109 
L 494 744 
Q 775 591 1075 516 
Q 1375 441 1709 441 
Q 2250 441 2565 725 
Q 2881 1009 2881 1497 
Q 2881 1984 2565 2268 
Q 2250 2553 1709 2553 
Q 1456 2553 1204 2497 
Q 953 2441 691 2322 
L 691 4666 
z
" transform="scale(0.015625)"/>
       </defs>
       <use xlink:href="#DejaVuSans-35"/>
       <use xlink:href="#DejaVuSans-30" x="63.623047"/>
       <use xlink:href="#DejaVuSans-30" x="127.246094"/>
      </g>
     </g>
    </g>
    <g id="text_7">
     <!-- t, ms -->
     <g transform="translate(223.546719 335.860562)scale(0.1 -0.1)">
      <defs>
       <path id="DejaVuSans-74" d="M 1172 4494 
L 1172 3500 
L 2356 3500 
L 2356 3053 
L 1172 3053 
L 1172 1153 
Q 1172 725 1289 603 
Q 1406 481 1766 481 
L 2356 481 
L 2356 0 
L 1766 0 
Q 1100 0 847 248 
Q 594 497 594 1153 
L 594 3053 
L 172 3053 
L 172 3500 
L 594 3500 
L 594 4494 
L 1172 4494 
z
" transform="scale(0.015625)"/>
       <path id="DejaVuSans-2c" d="M 750 794 
L 1409 794 
L 1409 256 
L 897 -744 
L 494 -744 
L 750 256 
L 750 794 
z
" transform="scale(0.015625)"/>
       <path id="DejaVuSans-20" transform="scale(0.015625)"/>
       <path id="DejaVuSans-6d" d="M 3328 2828 
Q 3544 3216 3844 3400 
Q 4144 3584 4550 3584 
Q 5097 3584 5394 3201 
Q 5691 2819 5691 2113 
L 5691 0 
L 5113 0 
L 5113 2094 
Q 5113 2597 4934 2840 
Q 4756 3084 4391 3084 
Q 3944 3084 3684 2787 
Q 3425 2491 3425 1978 
L 3425 0 
L 2847 0 
L 2847 2094 
Q 2847 2600 2669 2842 
Q 2491 3084 2119 3084 
Q 1678 3084 1418 2786 
Q 1159 2488 1159 1978 
L 1159 0 
L 581 0 
L 581 3500 
L 1159 3500 
L 1159 2956 
Q 1356 3278 1631 3431 
Q 1906 3584 2284 3584 
Q 2666 3584 2933 3390 
Q 3200 3197 3328 2828 
z
" transform="scale(0.015625)"/>
       <path id="DejaVuSans-73" d="M 2834 3397 
L 2834 2853 
Q 2591 2978 2328 3040 
Q 2066 3103 1784 3103 
Q 1356 3103 1142 2972 
Q 928 2841 928 2578 
Q 928 2378 1081 2264 
Q 1234 2150 1697 2047 
L 1894 2003 
Q 2506 1872 2764 1633 
Q 3022 1394 3022 966 
Q 3022 478 2636 193 
Q 2250 -91 1575 -91 
Q 1294 -91 989 -36 
Q 684 19 347 128 
L 347 722 
Q 666 556 975 473 
Q 1284 391 1588 391 
Q 1994 391 2212 530 
Q 2431 669 2431 922 
Q 2431 1156 2273 1281 
Q 2116 1406 1581 1522 
L 1381 1569 
Q 847 1681 609 1914 
Q 372 2147 372 2553 
Q 372 3047 722 3315 
Q 1072 3584 1716 3584 
Q 2034 3584 2315 3537 
Q 2597 3491 2834 3397 
z
" transform="scale(0.015625)"/>
      </defs>
      <use xlink:href="#DejaVuSans-74"/>
      <use xlink:href="#DejaVuSans-2c" x="39.208984"/>
      <use xlink:href="#DejaVuSans-20" x="70.996094"/>
      <use xlink:href="#DejaVuSans-6d" x="102.783203"/>
      <use xlink:href="#DejaVuSans-73" x="200.195312"/>
     </g>
    </g>
   </g>
   <g id="matplotlib.axis_2">
    <g id="ytick_1">
     <g id="line2d_13">
      <path d="M 57.6 297.202347 
L 414.72 297.202347 
" clip-path="url(#pcdc02610bd)" style="fill: none; stroke: #b0b0b0; stroke-width: 0.8; stroke-linecap: square"/>
     </g>
     <g id="line2d_14">
      <defs>
       <path id="m040efbfdeb" d="M 0 0 
L -3.5 0 
" style="stroke: #000000; stroke-width: 0.8"/>
      </defs>
      <g>
       <use xlink:href="#m040efbfdeb" x="57.6" y="297.202347" style="stroke: #000000; stroke-width: 0.8"/>
      </g>
     </g>
     <g id="text_8">
      <!-- −80 -->
      <g transform="translate(29.495313 301.001565)scale(0.1 -0.1)">
       <defs>
        <path id="DejaVuSans-2212" d="M 678 2272 
L 4684 2272 
L 4684 1741 
L 678 1741 
L 678 2272 
z
" transform="scale(0.015625)"/>
        <path id="DejaVuSans-38" d="M 2034 2216 
Q 1584 2216 1326 1975 
Q 1069 1734 1069 1313 
Q 1069 891 1326 650 
Q 1584 409 2034 409 
Q 2484 409 2743 651 
Q 3003 894 3003 1313 
Q 3003 1734 2745 1975 
Q 2488 2216 2034 2216 
z
M 1403 2484 
Q 997 2584 770 2862 
Q 544 3141 544 3541 
Q 544 4100 942 4425 
Q 1341 4750 2034 4750 
Q 2731 4750 3128 4425 
Q 3525 4100 3525 3541 
Q 3525 3141 3298 2862 
Q 3072 2584 2669 2484 
Q 3125 2378 3379 2068 
Q 3634 1759 3634 1313 
Q 3634 634 3220 271 
Q 2806 -91 2034 -91 
Q 1263 -91 848 271 
Q 434 634 434 1313 
Q 434 1759 690 2068 
Q 947 2378 1403 2484 
z
M 1172 3481 
Q 1172 3119 1398 2916 
Q 1625 2713 2034 2713 
Q 2441 2713 2670 2916 
Q 2900 3119 2900 3481 
Q 2900 3844 2670 4047 
Q 2441 4250 2034 4250 
Q 1625 4250 1398 4047 
Q 1172 3844 1172 3481 
z
" transform="scale(0.015625)"/>
       </defs>
       <use xlink:href="#DejaVuSans-2212"/>
       <use xlink:href="#DejaVuSans-38" x="83.789062"/>
       <use xlink:href="#DejaVuSans-30" x="147.412109"/>
      </g>
     </g>
    </g>
    <g id="ytick_2">
     <g id="line2d_15">
      <path d="M 57.6 252.905193 
L 414.72 252.905193 
" clip-path="url(#pcdc02610bd)" style="fill: none; stroke: #b0b0b0; stroke-width: 0.8; stroke-linecap: square"/>
     </g>
     <g id="line2d_16">
      <g>
       <use xlink:href="#m040efbfdeb" x="57.6" y="252.905193" style="stroke: #000000; stroke-width: 0.8"/>
      </g>
     </g>
     <g id="text_9">
      <!-- −60 -->
      <g transform="translate(29.495313 256.704411)scale(0.1 -0.1)">
       <defs>
        <path id="DejaVuSans-36" d="M 2113 2584 
Q 1688 2584 1439 2293 
Q 1191 2003 1191 1497 
Q 1191 994 1439 701 
Q 1688 409 2113 409 
Q 2538 409 2786 701 
Q 3034 994 3034 1497 
Q 3034 2003 2786 2293 
Q 2538 2584 2113 2584 
z
M 3366 4563 
L 3366 3988 
Q 3128 4100 2886 4159 
Q 2644 4219 2406 4219 
Q 1781 4219 1451 3797 
Q 1122 3375 1075 2522 
Q 1259 2794 1537 2939 
Q 1816 3084 2150 3084 
Q 2853 3084 3261 2657 
Q 3669 2231 3669 1497 
Q 3669 778 3244 343 
Q 2819 -91 2113 -91 
Q 1303 -91 875 529 
Q 447 1150 447 2328 
Q 447 3434 972 4092 
Q 1497 4750 2381 4750 
Q 2619 4750 2861 4703 
Q 3103 4656 3366 4563 
z
" transform="scale(0.015625)"/>
       </defs>
       <use xlink:href="#DejaVuSans-2212"/>
       <use xlink:href="#DejaVuSans-36" x="83.789062"/>
       <use xlink:href="#DejaVuSans-30" x="147.412109"/>
      </g>
     </g>
    </g>
    <g id="ytick_3">
     <g id="line2d_17">
      <path d="M 57.6 208.608039 
L 414.72 208.608039 
" clip-path="url(#pcdc02610bd)" style="fill: none; stroke: #b0b0b0; stroke-width: 0.8; stroke-linecap: square"/>
     </g>
     <g id="line2d_18">
      <g>
       <use xlink:href="#m040efbfdeb" x="57.6" y="208.608039" style="stroke: #000000; stroke-width: 0.8"/>
      </g>
     </g>
     <g id="text_10">
      <!-- −40 -->
      <g transform="translate(29.495313 212.407257)scale(0.1 -0.1)">
       <use xlink:href="#DejaVuSans-2212"/>
       <use xlink:href="#DejaVuSans-34" x="83.789062"/>
       <use xlink:href="#DejaVuSans-30" x="147.412109"/>
      </g>
     </g>
    </g>
    <g id="ytick_4">
     <g id="line2d_19">
      <path d="M 57.6 164.310885 
L 414.72 164.310885 
" clip-path="url(#pcdc02610bd)" style="fill: none; stroke: #b0b0b0; stroke-width: 0.8; stroke-linecap: square"/>
     </g>
     <g id="line2d_20">
      <g>
       <use xlink:href="#m040efbfdeb" x="57.6" y="164.310885" style="stroke: #000000; stroke-width: 0.8"/>
      </g>
     </g>
     <g id="text_11">
      <!-- −20 -->
      <g transform="translate(29.495313 168.110104)scale(0.1 -0.1)">
       <use xlink:href="#DejaVuSans-2212"/>
       <use xlink:href="#DejaVuSans-32" x="83.789062"/>
       <use xlink:href="#DejaVuSans-30" x="147.412109"/>
      </g>
     </g>
    </g>
    <g id="ytick_5">
     <g id="line2d_21">
      <path d="M 57.6 120.013731 
L 414.72 120.013731 
" clip-path="url(#pcdc02610bd)" style="fill: none; stroke: #b0b0b0; stroke-width: 0.8; stroke-linecap: square"/>
     </g>
     <g id="line2d_22">
      <g>
       <use xlink:href="#m040efbfdeb" x="57.6" y="120.013731" style="stroke: #000000; stroke-width: 0.8"/>
      </g>
     </g>
     <g id="text_12">
      <!-- 0 -->
      <g transform="translate(44.2375 123.81295)scale(0.1 -0.1)">
       <use xlink:href="#DejaVuSans-30"/>
      </g>
     </g>
    </g>
    <g id="ytick_6">
     <g id="line2d_23">
      <path d="M 57.6 75.716577 
L 414.72 75.716577 
" clip-path="url(#pcdc02610bd)" style="fill: none; stroke: #b0b0b0; stroke-width: 0.8; stroke-linecap: square"/>
     </g>
     <g id="line2d_24">
      <g>
       <use xlink:href="#m040efbfdeb" x="57.6" y="75.716577" style="stroke: #000000; stroke-width: 0.8"/>
      </g>
     </g>
     <g id="text_13">
      <!-- 20 -->
      <g transform="translate(37.875 79.515796)scale(0.1 -0.1)">
       <use xlink:href="#DejaVuSans-32"/>
       <use xlink:href="#DejaVuSans-30" x="63.623047"/>
      </g>
     </g>
    </g>
   </g>
   <g id="line2d_25">
    <path d="M 73.832727 263.979481 
L 75.348793 239.641919 
L 75.781954 228.123339 
L 76.215116 207.841228 
L 76.431696 189.689231 
L 76.648277 158.597382 
L 76.864858 53.568 
L 77.081439 263.979481 
L 77.731181 272.727532 
L 78.164342 275.675804 
L 78.597504 276.787526 
L 78.814085 276.866569 
L 79.030665 276.724613 
L 79.463827 275.986878 
L 80.113569 274.238267 
L 81.413054 269.83975 
L 83.1457 263.109421 
L 84.228603 258.122279 
L 85.094926 253.135411 
L 85.744669 248.185725 
L 86.394411 241.028034 
L 86.827572 233.675496 
L 87.260734 221.653885 
L 87.693895 197.70998 
L 87.910476 174.149916 
L 88.127057 53.568 
L 88.343638 263.979481 
L 88.99338 275.569988 
L 89.426541 279.275679 
L 89.643122 280.134237 
L 89.859703 280.518242 
L 90.076284 280.55297 
L 90.292864 280.337839 
L 90.726026 279.434042 
L 91.592349 276.756883 
L 93.541576 269.708515 
L 95.274222 262.820024 
L 96.357125 257.738198 
L 97.223448 252.617065 
L 97.873191 247.471365 
L 98.306352 242.82832 
L 98.739514 236.348476 
L 99.172675 226.228714 
L 99.605837 207.497512 
L 99.822417 190.480614 
L 100.038998 161.341764 
L 100.255579 53.568 
L 100.47216 263.979481 
L 101.121902 275.737763 
L 101.555063 279.482982 
L 101.771644 280.345559 
L 101.988225 280.728039 
L 102.204806 280.758402 
L 102.421386 280.537802 
L 102.854548 279.623203 
L 103.720871 276.931263 
L 105.886678 269.058477 
L 107.619324 262.068268 
L 108.702228 256.817054 
L 109.568551 251.394612 
L 110.218293 245.772661 
L 110.651455 240.525976 
L 111.084616 232.904735 
L 111.517778 220.280077 
L 111.734359 210.073807 
L 111.950939 194.587748 
L 112.16752 168.694356 
L 112.384101 53.568 
L 112.600682 263.979481 
L 113.250424 275.639298 
L 113.683585 279.361387 
L 113.900166 280.221641 
L 114.116747 280.605044 
L 114.333328 280.637988 
L 114.549908 280.42061 
L 114.98307 279.512358 
L 115.849393 276.829086 
L 117.79862 269.777888 
L 119.531266 262.897789 
L 120.614169 257.83198 
L 121.480492 252.739371 
L 122.130235 247.638046 
L 122.779977 240.158842 
L 123.213138 232.340658 
L 123.6463 219.265439 
L 123.862881 208.590355 
L 124.079461 192.232592 
L 124.296042 164.503049 
L 124.512623 53.568 
L 124.729204 263.979481 
L 125.378946 275.695722 
L 125.812107 279.431089 
L 126.028688 280.292686 
L 126.245269 280.67557 
L 126.46185 280.707042 
L 126.67843 280.487821 
L 127.111592 279.575934 
L 127.977915 276.887693 
L 130.143722 269.016413 
L 131.876368 262.020174 
L 132.959272 256.757724 
L 133.825595 251.314814 
L 134.475337 245.659826 
L 134.908499 240.370374 
L 135.341661 232.666179 
L 135.774822 219.85239 
L 135.991403 209.450013 
L 136.207984 193.60063 
L 136.424564 166.945798 
L 136.641145 53.568 
L 136.857726 263.979481 
L 137.507468 275.662934 
L 137.94063 279.390593 
L 138.15721 280.251413 
L 138.373791 280.634602 
L 138.590372 280.666931 
L 138.806953 280.448783 
L 139.240114 279.539009 
L 140.106437 276.853654 
L 142.055664 269.801488 
L 143.78831 262.924218 
L 144.871214 257.863809 
L 145.737537 252.780805 
L 146.387279 247.694388 
L 147.037021 240.247832 
L 147.470183 232.477774 
L 147.903344 219.513147 
L 148.119925 208.953656 
L 148.336506 192.811827 
L 148.553086 165.540078 
L 148.769667 53.568 
L 148.986248 263.979481 
L 149.63599 275.681835 
L 150.069152 279.41394 
L 150.285732 280.275209 
L 150.502313 280.658224 
L 150.718894 280.690059 
L 150.935475 280.471293 
L 151.368636 279.560302 
L 152.234959 276.873283 
L 154.400767 269.002498 
L 156.133413 262.004253 
L 157.216316 256.738067 
L 158.082639 251.288342 
L 158.732382 245.622337 
L 159.165543 240.318601 
L 159.598705 232.586636 
L 160.031866 219.709323 
L 160.248447 209.240856 
L 160.465028 193.268603 
L 160.681608 166.355011 
L 160.898189 53.568 
L 161.11477 263.979481 
L 161.764512 275.670888 
L 162.197674 279.400419 
L 162.414254 280.261429 
L 162.630835 280.644545 
L 162.847416 280.676667 
L 163.063997 280.458258 
L 163.497158 279.547972 
L 164.363481 276.861917 
L 166.529289 268.991522 
L 168.261935 261.991691 
L 169.344838 256.72255 
L 170.211161 251.267435 
L 170.860904 245.59271 
L 171.294065 240.277658 
L 171.727227 232.523673 
L 172.160388 219.595912 
L 172.376969 209.07488 
L 172.59355 193.004749 
L 172.81013 165.884577 
L 173.026711 53.568 
L 173.243292 263.979481 
L 173.893034 275.677211 
L 174.326196 279.408229 
L 174.542776 280.269389 
L 174.759357 280.652446 
L 174.975938 280.684403 
L 175.192519 280.465788 
L 175.62568 279.555094 
L 176.492003 276.868483 
L 178.657811 268.997863 
L 180.390457 261.998948 
L 181.47336 256.731515 
L 182.339683 251.279515 
L 182.989426 245.609831 
L 183.422587 240.301321 
L 183.855749 232.560069 
L 184.28891 219.661487 
L 184.505491 209.170867 
L 184.722072 193.157381 
L 184.938652 166.156812 
L 185.155233 53.568 
L 185.371814 263.979481 
L 186.021556 275.673553 
L 186.454718 279.403711 
L 186.671298 280.264784 
L 186.887879 280.647875 
L 187.10446 280.679928 
L 187.321041 280.461432 
L 187.754202 279.550974 
L 188.620525 276.864685 
L 190.786333 268.994195 
L 192.518979 261.99475 
L 193.601882 256.72633 
L 194.468205 251.272528 
L 195.117948 245.599929 
L 195.551109 240.287636 
L 195.984271 232.539023 
L 196.417432 219.623575 
L 196.634013 209.115379 
L 196.850594 193.069161 
L 197.067174 165.999496 
L 197.283755 53.568 
L 197.500336 263.979481 
L 198.150078 275.675667 
L 198.58324 279.406322 
L 198.79982 280.267446 
L 199.016401 280.650517 
L 199.232982 280.682514 
L 199.449563 280.46395 
L 199.882724 279.553356 
L 200.749047 276.86688 
L 202.914855 268.996315 
L 204.647501 261.997177 
L 205.730405 256.729327 
L 206.596728 251.276567 
L 207.24647 245.605653 
L 207.679631 240.295547 
L 208.112793 232.55119 
L 208.545954 219.645495 
L 208.762535 209.147463 
L 208.979116 193.120176 
L 209.195697 166.090479 
L 209.412277 53.568 
L 209.628858 263.979481 
L 210.2786 275.674445 
L 210.711762 279.404812 
L 210.928343 280.265907 
L 211.144923 280.64899 
L 211.361504 280.681018 
L 211.578085 280.462494 
L 212.011246 279.551979 
L 212.877569 276.86561 
L 215.043377 268.995089 
L 216.776023 261.995774 
L 217.858927 256.727594 
L 218.72525 251.274232 
L 219.374992 245.602343 
L 219.808153 240.290973 
L 220.241315 232.544156 
L 220.674476 219.632822 
L 220.891057 209.128914 
L 221.107638 193.090684 
L 221.324219 166.037885 
L 221.540799 53.568 
L 221.75738 263.979481 
L 222.407122 275.675152 
L 222.840284 279.405685 
L 223.056865 280.266796 
L 223.273445 280.649873 
L 223.490026 280.681883 
L 223.706607 280.463335 
L 224.139768 279.552775 
L 225.006091 276.866344 
L 227.171899 268.995798 
L 228.904545 261.996585 
L 229.987449 256.728596 
L 230.853772 251.275582 
L 231.503514 245.604257 
L 231.936675 240.293618 
L 232.369837 232.548223 
L 232.802998 219.640149 
L 233.019579 209.139639 
L 233.23616 193.107736 
L 233.452741 166.068296 
L 233.669321 53.568 
L 233.885902 263.979481 
L 234.535644 275.674743 
L 234.968806 279.40518 
L 235.185387 280.266282 
L 235.401967 280.649362 
L 235.618548 280.681383 
L 235.835129 280.462849 
L 236.26829 279.552314 
L 237.134613 276.86592 
L 239.300421 268.995388 
L 241.033067 261.996116 
L 242.115971 256.728016 
L 242.982294 251.274801 
L 243.632036 245.603151 
L 244.065197 240.292089 
L 244.498359 232.545871 
L 244.93152 219.635913 
L 245.148101 209.133438 
L 245.364682 193.097877 
L 245.581263 166.050714 
L 245.797843 53.568 
L 246.014424 263.979481 
L 246.664166 275.674979 
L 247.097328 279.405472 
L 247.313909 280.266579 
L 247.530489 280.649657 
L 247.74707 280.681672 
L 247.963651 280.46313 
L 248.396812 279.55258 
L 249.263135 276.866165 
L 251.428943 268.995625 
L 253.161589 261.996387 
L 254.244493 256.728351 
L 255.110816 251.275253 
L 255.760558 245.60379 
L 256.193719 240.292973 
L 256.626881 232.547231 
L 257.060042 219.638362 
L 257.276623 209.137023 
L 257.493204 193.103578 
L 257.709785 166.06088 
L 257.926365 53.568 
L 258.142946 263.979481 
L 258.792688 275.674843 
L 259.22585 279.405304 
L 259.442431 280.266407 
L 259.659011 280.649487 
L 259.875592 280.681505 
L 260.092173 280.462967 
L 260.525334 279.552427 
L 261.391657 276.866023 
L 263.557465 268.995488 
L 265.290111 261.99623 
L 266.373015 256.728158 
L 267.239338 251.274992 
L 267.88908 245.60342 
L 268.322241 240.292461 
L 268.755403 232.546445 
L 269.188564 219.636946 
L 269.405145 209.134951 
L 269.621726 193.100282 
L 269.838307 166.055003 
L 270.054888 53.568 
L 270.271468 263.979481 
L 270.921211 275.674922 
L 271.354372 279.405401 
L 271.570953 280.266507 
L 271.787534 280.649585 
L 272.004114 280.681602 
L 272.220695 280.463061 
L 272.653857 279.552516 
L 273.52018 276.866105 
L 275.685987 268.995567 
L 277.418633 261.996321 
L 278.501537 256.72827 
L 279.36786 251.275143 
L 280.017602 245.603634 
L 280.450764 240.292757 
L 280.883925 232.546899 
L 281.317087 219.637765 
L 281.533667 209.136149 
L 281.750248 193.102187 
L 281.966829 166.058401 
L 282.18341 53.568 
L 282.39999 263.979481 
L 283.049733 275.674876 
L 283.482894 279.405345 
L 283.699475 280.266449 
L 283.916056 280.649528 
L 284.132636 280.681546 
L 284.349217 280.463007 
L 284.782379 279.552464 
L 285.648702 276.866058 
L 287.814509 268.995521 
L 289.547155 261.996268 
L 290.630059 256.728205 
L 291.496382 251.275055 
L 292.146124 245.603511 
L 292.579286 240.292586 
L 293.012447 232.546636 
L 293.445609 219.637292 
L 293.662189 209.135456 
L 293.87877 193.101086 
L 294.095351 166.056436 
L 294.311932 53.568 
L 294.528512 263.979481 
L 295.178255 275.674902 
L 295.611416 279.405377 
L 295.827997 280.266483 
L 296.044578 280.649561 
L 296.261158 280.681578 
L 296.477739 280.463039 
L 296.910901 279.552494 
L 297.777224 276.866085 
L 299.943031 268.995548 
L 301.675677 261.996299 
L 302.758581 256.728242 
L 303.624904 251.275106 
L 304.274646 245.603582 
L 304.707808 240.292685 
L 305.140969 232.546788 
L 305.574131 219.637565 
L 305.790711 209.135857 
L 306.007292 193.101723 
L 306.223873 166.057572 
L 306.440454 53.568 
L 306.657034 263.979481 
L 307.306777 275.674887 
L 307.739938 279.405358 
L 307.956519 280.266463 
L 308.1731 280.649542 
L 308.38968 280.68156 
L 308.606261 280.46302 
L 309.039423 279.552477 
L 309.905746 276.86607 
L 312.071553 268.995532 
L 313.804199 261.996281 
L 314.887103 256.728221 
L 315.753426 251.275077 
L 316.403168 245.603541 
L 316.83633 240.292628 
L 317.269491 232.546701 
L 317.702653 219.637407 
L 317.919233 209.135625 
L 318.135814 193.101354 
L 318.352395 166.056915 
L 318.568976 53.568 
L 318.785556 263.979481 
L 319.435299 275.674896 
L 319.86846 279.405369 
L 320.085041 280.266474 
L 320.301622 280.649553 
L 320.518202 280.68157 
L 320.734783 280.463031 
L 321.167945 279.552487 
L 322.034268 276.866079 
L 324.200075 268.995541 
L 325.932721 261.996291 
L 327.015625 256.728233 
L 327.881948 251.275093 
L 328.53169 245.603565 
L 328.964852 240.292661 
L 329.398013 232.546751 
L 329.831175 219.637498 
L 330.047755 209.135759 
L 330.264336 193.101567 
L 330.480917 166.057295 
L 330.697498 53.568 
L 330.914078 263.979481 
L 331.563821 275.674891 
L 331.996982 279.405363 
L 332.213563 280.266468 
L 332.430144 280.649547 
L 332.646724 280.681564 
L 332.863305 280.463025 
L 333.296467 279.552481 
L 334.16279 276.866073 
L 336.328597 268.995536 
L 338.061243 261.996285 
L 339.144147 256.728226 
L 340.01047 251.275084 
L 340.660212 245.603551 
L 341.093374 240.292642 
L 341.526535 232.546722 
L 341.959697 219.637446 
L 342.176278 209.135682 
L 342.392858 193.101444 
L 342.609439 166.057075 
L 342.82602 53.568 
L 343.042601 263.979481 
L 343.692343 275.674894 
L 344.125504 279.405367 
L 344.342085 280.266472 
L 344.558666 280.64955 
L 344.775247 280.681568 
L 344.991827 280.463028 
L 345.424989 279.552484 
L 346.291312 276.866077 
L 348.457119 268.995539 
L 350.189765 261.996289 
L 351.272669 256.72823 
L 352.138992 251.275089 
L 352.788734 245.603559 
L 353.221896 240.292653 
L 353.655057 232.546739 
L 354.088219 219.637476 
L 354.3048 209.135726 
L 354.52138 193.101515 
L 354.737961 166.057202 
L 354.954542 53.568 
L 355.171123 263.979481 
L 355.820865 275.674892 
L 356.254026 279.405365 
L 356.470607 280.26647 
L 356.687188 280.649548 
L 356.903769 280.681566 
L 357.120349 280.463026 
L 357.553511 279.552482 
L 358.419834 276.866075 
L 360.585641 268.995537 
L 362.318287 261.996287 
L 363.401191 256.728228 
L 364.267514 251.275086 
L 364.917256 245.603554 
L 365.350418 240.292646 
L 365.783579 232.546729 
L 366.216741 219.637458 
L 366.433322 209.135701 
L 366.649902 193.101474 
L 366.866483 166.057129 
L 367.083064 53.568 
L 367.299645 263.979481 
L 367.949387 275.674893 
L 368.382548 279.405366 
L 368.599129 280.266471 
L 368.81571 280.64955 
L 369.032291 280.681567 
L 369.248871 280.463027 
L 369.682033 279.552483 
L 370.548356 276.866076 
L 372.714163 268.995538 
L 374.446809 261.996288 
L 375.529713 256.728229 
L 376.396036 251.275088 
L 377.045778 245.603557 
L 377.47894 240.29265 
L 377.912101 232.546735 
L 378.345263 219.637469 
L 378.561844 209.135716 
L 378.778424 193.101498 
L 378.995005 166.057171 
L 379.211586 53.568 
L 379.428167 263.979481 
L 380.077909 275.674892 
L 380.51107 279.405365 
L 380.727651 280.26647 
L 380.944232 280.649549 
L 381.160813 280.681566 
L 381.377393 280.463027 
L 381.810555 279.552483 
L 382.676878 276.866075 
L 384.842685 268.995538 
L 386.575331 261.996287 
L 387.658235 256.728228 
L 388.524558 251.275087 
L 389.1743 245.603555 
L 389.607462 240.292648 
L 390.040623 232.546732 
L 390.473785 219.637463 
L 390.690366 209.135707 
L 390.906946 193.101484 
L 391.123527 166.057147 
L 391.340108 53.568 
L 391.556689 263.979481 
L 392.206431 275.674893 
L 392.639592 279.405365 
L 392.856173 280.266471 
L 393.072754 280.649549 
L 393.289335 280.681567 
L 393.505915 280.463027 
L 393.939077 279.552483 
L 394.8054 276.866076 
L 396.971207 268.995538 
L 398.487273 262.937572 
L 398.487273 262.937572 
" clip-path="url(#pcdc02610bd)" style="fill: none; stroke: #1f77b4; stroke-width: 1.5; stroke-linecap: square"/>
   </g>
   <g id="line2d_26">
    <path d="M 73.832727 263.979481 
L 74.915631 257.184014 
L 75.998535 250.211263 
L 76.648277 244.599963 
L 77.081439 239.372753 
L 77.947762 253.488481 
L 78.814085 266.605117 
L 79.247246 270.571136 
L 79.680408 272.659607 
L 79.896988 273.144034 
L 80.113569 273.34589 
L 80.33015 273.326304 
L 80.763311 272.8189 
L 81.413054 271.383762 
L 82.712538 267.646463 
L 85.094926 260.042394 
L 86.17783 255.991188 
L 87.044153 251.953103 
L 87.693895 247.94925 
L 88.343638 242.216712 
L 89.859703 269.741028 
L 90.292864 273.664489 
L 90.726026 275.398878 
L 90.942607 275.674998 
L 91.159187 275.675192 
L 91.592349 275.116339 
L 92.242091 273.52757 
L 93.758156 268.843205 
L 96.790287 258.89095 
L 97.873191 254.557339 
L 98.739514 250.029078 
L 99.389256 245.274391 
L 99.822417 240.817226 
L 100.255579 234.378135 
L 100.47216 229.871962 
L 100.905321 231.108982 
L 101.121902 231.393936 
L 101.338483 231.391117 
L 101.555063 231.032369 
L 101.771644 230.2254 
L 101.988225 228.840498 
L 102.421386 223.473122 
L 102.854548 211.603772 
L 103.071129 200.566429 
L 103.287709 182.376104 
L 103.50429 149.336927 
L 103.720871 53.568 
L 103.937452 263.979481 
L 104.587194 282.010031 
L 105.020355 287.585082 
L 105.453517 289.532989 
L 105.670098 289.800955 
L 105.886678 289.824151 
L 106.31984 289.492884 
L 107.402744 288.074657 
L 109.13539 285.931959 
L 110.868036 284.169526 
L 112.600682 282.671877 
L 113.033843 292.988527 
L 113.250424 294.85594 
L 113.467005 295.488 
L 113.683585 295.429032 
L 114.116747 294.412507 
L 116.499135 287.252513 
L 117.79862 284.287508 
L 119.098104 281.889016 
L 120.397589 279.927862 
L 121.913654 278.054853 
L 123.6463 276.307792 
L 124.729204 275.369005 
L 125.162365 286.265292 
L 125.595527 290.147573 
L 125.812107 290.546575 
L 126.028688 290.419526 
L 126.46185 289.399653 
L 129.49398 280.224406 
L 130.793465 277.282705 
L 132.092949 274.844828 
L 133.609014 272.495515 
L 135.12508 270.54957 
L 136.857726 268.683063 
L 137.290887 280.046689 
L 137.724049 285.399745 
L 137.94063 286.387386 
L 138.15721 286.685083 
L 138.373791 286.541338 
L 138.806953 285.552955 
L 140.106437 281.239013 
L 141.622502 276.595706 
L 143.138568 272.726608 
L 144.654633 269.467028 
L 146.387279 266.269163 
L 148.769667 262.392037 
L 148.986248 262.052121 
L 149.63599 277.794946 
L 150.069152 282.380395 
L 150.285732 283.28548 
L 150.502313 283.590006 
L 150.718894 283.489322 
L 151.152055 282.595894 
L 152.018378 279.81453 
L 153.967605 273.483787 
L 155.700251 268.68079 
L 158.082639 262.852433 
L 160.248447 257.417637 
L 161.11477 254.822141 
L 161.764512 271.01239 
L 162.197674 277.52404 
L 162.630835 280.366862 
L 162.847416 280.828762 
L 163.063997 280.877574 
L 163.280577 280.641917 
L 163.713739 279.665088 
L 164.796643 276.199324 
L 166.96245 269.278085 
L 171.727227 254.757874 
L 172.59355 250.896455 
L 173.243292 246.974756 
L 174.326196 270.242029 
L 174.759357 275.403795 
L 175.192519 277.720879 
L 175.409099 278.117187 
L 175.62568 278.169136 
L 175.842261 277.973504 
L 176.275422 277.114962 
L 177.141745 274.58477 
L 183.206006 254.989484 
L 184.072329 250.909955 
L 184.722072 246.754943 
L 185.371814 240.616315 
L 187.10446 270.59623 
L 187.537621 273.943341 
L 187.970783 275.318841 
L 188.187364 275.488954 
L 188.403944 275.419987 
L 188.837106 274.799212 
L 189.486848 273.221132 
L 191.219494 268.0479 
L 194.251625 258.532208 
L 195.334528 254.363689 
L 196.200851 249.999729 
L 196.850594 245.424262 
L 197.283755 241.152269 
L 197.500336 238.397066 
L 198.366659 252.922188 
L 199.232982 266.895994 
L 199.666143 271.181422 
L 200.099305 273.444407 
L 200.315886 273.974246 
L 200.532466 274.203146 
L 200.749047 274.198416 
L 201.182209 273.701974 
L 201.831951 272.273457 
L 203.131436 268.595048 
L 206.163566 259.273305 
L 207.24647 255.294859 
L 208.112793 251.262266 
L 208.762535 247.193874 
L 209.412277 241.254431 
L 209.628858 238.523493 
L 210.495181 253.17907 
L 211.361504 267.157404 
L 211.794666 271.38845 
L 212.227827 273.592668 
L 212.444408 274.097174 
L 212.660989 274.3045 
L 212.877569 274.281918 
L 213.310731 273.75936 
L 213.960473 272.308425 
L 215.476538 267.969861 
L 218.292088 259.290044 
L 219.374992 255.316897 
L 220.241315 251.293173 
L 220.891057 247.237717 
L 221.540799 241.32472 
L 221.75738 238.608943 
L 222.623703 253.344745 
L 223.490026 267.31942 
L 223.923188 271.51383 
L 224.356349 273.679954 
L 224.57293 274.168303 
L 224.789511 274.361967 
L 225.006091 274.328137 
L 225.439253 273.789184 
L 226.088995 272.324119 
L 227.60506 267.973478 
L 230.42061 259.28821 
L 231.503514 255.313377 
L 232.369837 251.287514 
L 233.019579 247.229216 
L 233.669321 241.310633 
L 233.885902 238.591697 
L 234.752225 253.310767 
L 235.618548 267.285864 
L 236.05171 271.48769 
L 236.484871 273.661572 
L 236.701452 274.153218 
L 236.918033 274.349673 
L 237.134613 274.31814 
L 237.567775 273.782534 
L 238.217517 272.320342 
L 239.733582 267.972073 
L 242.549132 259.28742 
L 243.632036 255.312457 
L 244.498359 251.286302 
L 245.148101 247.227549 
L 245.797843 241.308012 
L 246.014424 238.588525 
L 246.880747 253.30469 
L 247.74707 267.279981 
L 248.180232 271.483166 
L 248.613393 273.658448 
L 248.829974 274.150686 
L 249.046555 274.347639 
L 249.263135 274.316517 
L 249.696297 273.781509 
L 250.346039 272.319833 
L 251.862104 267.972013 
L 254.677654 259.287612 
L 255.760558 255.312761 
L 256.626881 251.286763 
L 257.276623 247.228224 
L 257.926365 241.309116 
L 258.142946 238.589872 
L 259.009269 253.307328 
L 259.875592 267.282576 
L 260.308754 271.485182 
L 260.741915 273.65986 
L 260.958496 274.151841 
L 261.175077 274.348578 
L 261.391657 274.317277 
L 261.824819 273.782008 
L 262.474561 272.320109 
L 263.990626 267.972102 
L 266.806176 259.287637 
L 267.88908 255.312782 
L 268.755403 251.286783 
L 269.405145 247.228248 
L 270.054888 241.309149 
L 270.271468 238.589911 
L 271.137791 253.307396 
L 272.004114 267.282638 
L 272.437276 271.485227 
L 272.870437 273.659889 
L 273.087018 274.151863 
L 273.303599 274.348594 
L 273.52018 274.317289 
L 273.953341 273.782014 
L 274.603083 272.320108 
L 276.119149 267.972096 
L 278.934698 259.287623 
L 280.017602 255.312762 
L 280.883925 251.286754 
L 281.533667 247.228206 
L 282.18341 241.309081 
L 282.39999 238.589828 
L 283.266313 253.307235 
L 284.132636 267.282479 
L 284.565798 271.485104 
L 284.998959 273.659803 
L 285.21554 274.151793 
L 285.432121 274.348538 
L 285.648702 274.317244 
L 286.081863 273.781984 
L 286.731605 272.320092 
L 288.247671 267.972091 
L 291.06322 259.287623 
L 292.146124 255.312763 
L 293.012447 251.286756 
L 293.662189 247.228209 
L 294.311932 241.309086 
L 294.528512 238.589835 
L 295.394835 253.307248 
L 296.261158 267.282493 
L 296.69432 271.485115 
L 297.127481 273.659811 
L 297.344062 274.1518 
L 297.560643 274.348543 
L 297.777224 274.317248 
L 298.210385 273.781987 
L 298.860127 272.320094 
L 300.376193 267.972092 
L 303.191742 259.287624 
L 304.274646 255.312764 
L 305.140969 251.286758 
L 305.790711 247.228211 
L 306.440454 241.30909 
L 306.657034 238.589839 
L 307.523357 253.307256 
L 308.38968 267.282501 
L 308.822842 271.485121 
L 309.256003 273.659815 
L 309.472584 274.151803 
L 309.689165 274.348546 
L 309.905746 274.31725 
L 310.338907 273.781989 
L 310.988649 272.320095 
L 312.504715 267.972092 
L 315.320264 259.287624 
L 316.403168 255.312763 
L 317.269491 251.286757 
L 317.919233 247.228211 
L 318.568976 241.309089 
L 318.785556 238.589838 
L 319.651879 253.307255 
L 320.518202 267.282499 
L 320.951364 271.48512 
L 321.384525 273.659814 
L 321.601106 274.151802 
L 321.817687 274.348545 
L 322.034268 274.31725 
L 322.467429 273.781988 
L 323.117171 272.320095 
L 324.633237 267.972092 
L 327.448786 259.287624 
L 328.53169 255.312763 
L 329.398013 251.286757 
L 330.047755 247.228211 
L 330.697498 241.309089 
L 330.914078 238.589838 
L 331.780401 253.307254 
L 332.646724 267.282499 
L 333.079886 271.48512 
L 333.513047 273.659814 
L 333.729628 274.151802 
L 333.946209 274.348545 
L 334.16279 274.317249 
L 334.595951 273.781988 
L 335.245693 272.320095 
L 336.761759 267.972092 
L 339.577309 259.287624 
L 340.660212 255.312763 
L 341.526535 251.286757 
L 342.176278 247.228211 
L 342.82602 241.309089 
L 343.042601 238.589838 
L 343.908924 253.307255 
L 344.775247 267.282499 
L 345.208408 271.48512 
L 345.64157 273.659814 
L 345.85815 274.151802 
L 346.074731 274.348545 
L 346.291312 274.317249 
L 346.724473 273.781988 
L 347.374216 272.320095 
L 348.890281 267.972092 
L 351.705831 259.287624 
L 352.788734 255.312763 
L 353.655057 251.286757 
L 354.3048 247.228211 
L 354.954542 241.309089 
L 355.171123 238.589838 
L 356.037446 253.307255 
L 356.903769 267.282499 
L 357.33693 271.48512 
L 357.770092 273.659814 
L 357.986672 274.151802 
L 358.203253 274.348545 
L 358.419834 274.317249 
L 358.852995 273.781988 
L 359.502738 272.320095 
L 361.018803 267.972092 
L 363.834353 259.287624 
L 364.917256 255.312763 
L 365.783579 251.286757 
L 366.433322 247.228211 
L 367.083064 241.309089 
L 367.299645 238.589838 
L 368.165968 253.307254 
L 369.032291 267.282499 
L 369.465452 271.48512 
L 369.898614 273.659814 
L 370.115194 274.151802 
L 370.331775 274.348545 
L 370.548356 274.317249 
L 370.981517 273.781988 
L 371.63126 272.320095 
L 373.147325 267.972092 
L 375.962875 259.287624 
L 377.045778 255.312763 
L 377.912101 251.286757 
L 378.561844 247.228211 
L 379.211586 241.309089 
L 379.428167 238.589838 
L 380.29449 253.307254 
L 381.160813 267.282499 
L 381.593974 271.48512 
L 382.027136 273.659814 
L 382.243716 274.151802 
L 382.460297 274.348545 
L 382.676878 274.317249 
L 383.110039 273.781988 
L 383.759782 272.320095 
L 385.275847 267.972092 
L 388.091397 259.287624 
L 389.1743 255.312763 
L 390.040623 251.286757 
L 390.690366 247.228211 
L 391.340108 241.309089 
L 391.556689 238.589838 
L 392.423012 253.307254 
L 393.289335 267.282499 
L 393.722496 271.48512 
L 394.155658 273.659814 
L 394.372238 274.151802 
L 394.588819 274.348545 
L 394.8054 274.317249 
L 395.238561 273.781988 
L 395.888304 272.320095 
L 397.404369 267.972092 
L 398.487273 264.728433 
L 398.487273 264.728433 
" clip-path="url(#pcdc02610bd)" style="fill: none; stroke: #ff7f0e; stroke-width: 1.5; stroke-linecap: square"/>
   </g>
   <g id="line2d_27">
    <path d="M 73.832727 120.013731 
L 76.864858 120.013731 
L 77.081439 139.94745 
L 77.947762 135.137243 
L 78.814085 131.487788 
L 79.680408 128.718982 
L 80.546731 126.618318 
L 81.413054 125.024564 
L 82.279377 123.8154 
L 83.36228 122.705605 
L 84.445184 121.919785 
L 85.744669 121.273328 
L 87.260734 120.790593 
L 88.127057 120.603129 
L 88.343638 140.497529 
L 89.209961 135.554582 
L 90.076284 131.804418 
L 90.942607 128.959207 
L 91.80893 126.800574 
L 92.675253 125.16284 
L 93.541576 123.920308 
L 94.624479 122.779888 
L 95.707383 121.972383 
L 97.006868 121.308087 
L 98.522933 120.812031 
L 100.255579 120.473241 
L 100.47216 140.376306 
L 101.338483 135.462612 
L 102.204806 131.734641 
L 103.071129 128.906268 
L 103.937452 126.760409 
L 104.803775 125.132368 
L 105.670098 123.897189 
L 106.753001 122.763518 
L 107.835905 121.960791 
L 109.13539 121.300427 
L 110.651455 120.807307 
L 112.384101 120.470522 
L 112.600682 140.373768 
L 113.467005 135.460686 
L 114.333328 131.73318 
L 115.199651 128.905159 
L 116.065974 126.759568 
L 116.932297 125.13173 
L 117.79862 123.896705 
L 118.881523 122.763175 
L 119.964427 121.960549 
L 121.263912 121.300267 
L 122.779977 120.807208 
L 124.512623 120.470465 
L 124.729204 140.373715 
L 125.595527 135.460646 
L 126.46185 131.73315 
L 127.328173 128.905136 
L 128.194496 126.759551 
L 129.060819 125.131716 
L 129.927142 123.896695 
L 131.010045 122.763168 
L 132.092949 121.960544 
L 133.392434 121.300263 
L 134.908499 120.807206 
L 136.641145 120.470463 
L 136.857726 140.373714 
L 137.724049 135.460645 
L 138.590372 131.733149 
L 139.456695 128.905136 
L 140.323018 126.75955 
L 141.189341 125.131716 
L 142.055664 123.896695 
L 143.138568 122.763168 
L 144.221471 121.960544 
L 145.520956 121.300263 
L 147.037021 120.807206 
L 148.769667 120.470463 
L 148.986248 140.373713 
L 149.852571 135.460645 
L 150.718894 131.733149 
L 151.585217 128.905136 
L 152.45154 126.75955 
L 153.317863 125.131716 
L 154.184186 123.896695 
L 155.26709 122.763168 
L 156.349993 121.960544 
L 157.649478 121.300263 
L 159.165543 120.807206 
L 160.898189 120.470463 
L 161.11477 140.373713 
L 161.981093 135.460645 
L 162.847416 131.733149 
L 163.713739 128.905136 
L 164.580062 126.75955 
L 165.446385 125.131716 
L 166.312708 123.896695 
L 167.395612 122.763168 
L 168.478515 121.960544 
L 169.778 121.300263 
L 171.294065 120.807206 
L 173.026711 120.470463 
L 173.243292 140.373713 
L 174.109615 135.460645 
L 174.975938 131.733149 
L 175.842261 128.905136 
L 176.708584 126.75955 
L 177.574907 125.131716 
L 178.44123 123.896695 
L 179.524134 122.763168 
L 180.607037 121.960544 
L 181.906522 121.300263 
L 183.422587 120.807206 
L 185.155233 120.470463 
L 185.371814 140.373713 
L 186.238137 135.460645 
L 187.10446 131.733149 
L 187.970783 128.905136 
L 188.837106 126.75955 
L 189.703429 125.131716 
L 190.569752 123.896695 
L 191.652656 122.763168 
L 192.735559 121.960544 
L 194.035044 121.300263 
L 195.551109 120.807206 
L 197.283755 120.470463 
L 197.500336 140.373713 
L 198.366659 135.460645 
L 199.232982 131.733149 
L 200.099305 128.905136 
L 200.965628 126.75955 
L 201.831951 125.131716 
L 202.698274 123.896695 
L 203.781178 122.763168 
L 204.864082 121.960544 
L 206.163566 121.300263 
L 207.679631 120.807206 
L 209.412277 120.470463 
L 209.628858 140.373713 
L 210.495181 135.460645 
L 211.361504 131.733149 
L 212.227827 128.905136 
L 213.09415 126.75955 
L 213.960473 125.131716 
L 214.826796 123.896695 
L 215.9097 122.763168 
L 216.992604 121.960544 
L 218.292088 121.300263 
L 219.808153 120.807206 
L 221.540799 120.470463 
L 221.75738 140.373713 
L 222.623703 135.460645 
L 223.490026 131.733149 
L 224.356349 128.905136 
L 225.222672 126.75955 
L 226.088995 125.131716 
L 226.955318 123.896695 
L 228.038222 122.763168 
L 229.121126 121.960544 
L 230.42061 121.300263 
L 231.936675 120.807206 
L 233.669321 120.470463 
L 233.885902 140.373713 
L 234.752225 135.460645 
L 235.618548 131.733149 
L 236.484871 128.905136 
L 237.351194 126.75955 
L 238.217517 125.131716 
L 239.08384 123.896695 
L 240.166744 122.763168 
L 241.249648 121.960544 
L 242.549132 121.300263 
L 244.065197 120.807206 
L 245.797843 120.470463 
L 246.014424 140.373713 
L 246.880747 135.460645 
L 247.74707 131.733149 
L 248.613393 128.905136 
L 249.479716 126.75955 
L 250.346039 125.131716 
L 251.212362 123.896695 
L 252.295266 122.763168 
L 253.37817 121.960544 
L 254.677654 121.300263 
L 256.193719 120.807206 
L 257.926365 120.470463 
L 258.142946 140.373713 
L 259.009269 135.460645 
L 259.875592 131.733149 
L 260.741915 128.905136 
L 261.608238 126.75955 
L 262.474561 125.131716 
L 263.340884 123.896695 
L 264.423788 122.763168 
L 265.506692 121.960544 
L 266.806176 121.300263 
L 268.322241 120.807206 
L 270.054888 120.470463 
L 270.271468 140.373713 
L 271.137791 135.460645 
L 272.004114 131.733149 
L 272.870437 128.905136 
L 273.73676 126.75955 
L 274.603083 125.131716 
L 275.469406 123.896695 
L 276.55231 122.763168 
L 277.635214 121.960544 
L 278.934698 121.300263 
L 280.450764 120.807206 
L 282.18341 120.470463 
L 282.39999 140.373713 
L 283.266313 135.460645 
L 284.132636 131.733149 
L 284.998959 128.905136 
L 285.865282 126.75955 
L 286.731605 125.131716 
L 287.597928 123.896695 
L 288.680832 122.763168 
L 289.763736 121.960544 
L 291.06322 121.300263 
L 292.579286 120.807206 
L 294.311932 120.470463 
L 294.528512 140.373713 
L 295.394835 135.460645 
L 296.261158 131.733149 
L 297.127481 128.905136 
L 297.993804 126.75955 
L 298.860127 125.131716 
L 299.72645 123.896695 
L 300.809354 122.763168 
L 301.892258 121.960544 
L 303.191742 121.300263 
L 304.707808 120.807206 
L 306.440454 120.470463 
L 306.657034 140.373713 
L 307.523357 135.460645 
L 308.38968 131.733149 
L 309.256003 128.905136 
L 310.122326 126.75955 
L 310.988649 125.131716 
L 311.854972 123.896695 
L 312.937876 122.763168 
L 314.02078 121.960544 
L 315.320264 121.300263 
L 316.83633 120.807206 
L 318.568976 120.470463 
L 318.785556 140.373713 
L 319.651879 135.460645 
L 320.518202 131.733149 
L 321.384525 128.905136 
L 322.250848 126.75955 
L 323.117171 125.131716 
L 323.983494 123.896695 
L 325.066398 122.763168 
L 326.149302 121.960544 
L 327.448786 121.300263 
L 328.964852 120.807206 
L 330.697498 120.470463 
L 330.914078 140.373713 
L 331.780401 135.460645 
L 332.646724 131.733149 
L 333.513047 128.905136 
L 334.37937 126.75955 
L 335.245693 125.131716 
L 336.112016 123.896695 
L 337.19492 122.763168 
L 338.277824 121.960544 
L 339.577309 121.300263 
L 341.093374 120.807206 
L 342.82602 120.470463 
L 343.042601 140.373713 
L 343.908924 135.460645 
L 344.775247 131.733149 
L 345.64157 128.905136 
L 346.507893 126.75955 
L 347.374216 125.131716 
L 348.240539 123.896695 
L 349.323442 122.763168 
L 350.406346 121.960544 
L 351.705831 121.300263 
L 353.221896 120.807206 
L 354.954542 120.470463 
L 355.171123 140.373713 
L 356.037446 135.460645 
L 356.903769 131.733149 
L 357.770092 128.905136 
L 358.636415 126.75955 
L 359.502738 125.131716 
L 360.369061 123.896695 
L 361.451964 122.763168 
L 362.534868 121.960544 
L 363.834353 121.300263 
L 365.350418 120.807206 
L 367.083064 120.470463 
L 367.299645 140.373713 
L 368.165968 135.460645 
L 369.032291 131.733149 
L 369.898614 128.905136 
L 370.764937 126.75955 
L 371.63126 125.131716 
L 372.497583 123.896695 
L 373.580486 122.763168 
L 374.66339 121.960544 
L 375.962875 121.300263 
L 377.47894 120.807206 
L 379.211586 120.470463 
L 379.428167 140.373713 
L 380.29449 135.460645 
L 381.160813 131.733149 
L 382.027136 128.905136 
L 382.893459 126.75955 
L 383.759782 125.131716 
L 384.626105 123.896695 
L 385.709008 122.763168 
L 386.791912 121.960544 
L 388.091397 121.300263 
L 389.607462 120.807206 
L 391.340108 120.470463 
L 391.556689 140.373713 
L 392.423012 135.460645 
L 393.289335 131.733149 
L 394.155658 128.905136 
L 395.021981 126.75955 
L 395.888304 125.131716 
L 396.754627 123.896695 
L 397.83753 122.763168 
L 398.487273 122.248805 
L 398.487273 122.248805 
" clip-path="url(#pcdc02610bd)" style="fill: none; stroke-dasharray: 5.55,2.4; stroke-dashoffset: 0; stroke: #000000; stroke-width: 1.5"/>
   </g>
   <g id="patch_3">
    <path d="M 57.6 307.584 
L 57.6 41.472 
" style="fill: none; stroke: #000000; stroke-width: 0.8; stroke-linejoin: miter; stroke-linecap: square"/>
   </g>
   <g id="patch_4">
    <path d="M 414.72 307.584 
L 414.72 41.472 
" style="fill: none; stroke: #000000; stroke-width: 0.8; stroke-linejoin: miter; stroke-linecap: square"/>
   </g>
   <g id="patch_5">
    <path d="M 57.6 307.584 
L 414.72 307.584 
" style="fill: none; stroke: #000000; stroke-width: 0.8; stroke-linejoin: miter; stroke-linecap: square"/>
   </g>
   <g id="patch_6">
    <path d="M 57.6 41.472 
L 414.72 41.472 
" style="fill: none; stroke: #000000; stroke-width: 0.8; stroke-linejoin: miter; stroke-linecap: square"/>
   </g>
   <g id="text_14">
    <!-- tau = 5ms -->
    <g transform="translate(204.699375 35.472)scale(0.12 -0.12)">
     <defs>
      <path id="DejaVuSans-61" d="M 2194 1759 
Q 1497 1759 1228 1600 
Q 959 1441 959 1056 
Q 959 750 1161 570 
Q 1363 391 1709 391 
Q 2188 391 2477 730 
Q 2766 1069 2766 1631 
L 2766 1759 
L 2194 1759 
z
M 3341 1997 
L 3341 0 
L 2766 0 
L 2766 531 
Q 2569 213 2275 61 
Q 1981 -91 1556 -91 
Q 1019 -91 701 211 
Q 384 513 384 1019 
Q 384 1609 779 1909 
Q 1175 2209 1959 2209 
L 2766 2209 
L 2766 2266 
Q 2766 2663 2505 2880 
Q 2244 3097 1772 3097 
Q 1472 3097 1187 3025 
Q 903 2953 641 2809 
L 641 3341 
Q 956 3463 1253 3523 
Q 1550 3584 1831 3584 
Q 2591 3584 2966 3190 
Q 3341 2797 3341 1997 
z
" transform="scale(0.015625)"/>
      <path id="DejaVuSans-75" d="M 544 1381 
L 544 3500 
L 1119 3500 
L 1119 1403 
Q 1119 906 1312 657 
Q 1506 409 1894 409 
Q 2359 409 2629 706 
Q 2900 1003 2900 1516 
L 2900 3500 
L 3475 3500 
L 3475 0 
L 2900 0 
L 2900 538 
Q 2691 219 2414 64 
Q 2138 -91 1772 -91 
Q 1169 -91 856 284 
Q 544 659 544 1381 
z
M 1991 3584 
L 1991 3584 
z
" transform="scale(0.015625)"/>
      <path id="DejaVuSans-3d" d="M 678 2906 
L 4684 2906 
L 4684 2381 
L 678 2381 
L 678 2906 
z
M 678 1631 
L 4684 1631 
L 4684 1100 
L 678 1100 
L 678 1631 
z
" transform="scale(0.015625)"/>
     </defs>
     <use xlink:href="#DejaVuSans-74"/>
     <use xlink:href="#DejaVuSans-61" x="39.208984"/>
     <use xlink:href="#DejaVuSans-75" x="100.488281"/>
     <use xlink:href="#DejaVuSans-20" x="163.867188"/>
     <use xlink:href="#DejaVuSans-3d" x="195.654297"/>
     <use xlink:href="#DejaVuSans-20" x="279.443359"/>
     <use xlink:href="#DejaVuSans-35" x="311.230469"/>
     <use xlink:href="#DejaVuSans-6d" x="374.853516"/>
     <use xlink:href="#DejaVuSans-73" x="472.265625"/>
    </g>
   </g>
   <g id="legend_1">
    <g id="patch_7">
     <path d="M 343.941875 93.7845 
L 407.72 93.7845 
Q 409.72 93.7845 409.72 91.7845 
L 409.72 48.472 
Q 409.72 46.472 407.72 46.472 
L 343.941875 46.472 
Q 341.941875 46.472 341.941875 48.472 
L 341.941875 91.7845 
Q 341.941875 93.7845 343.941875 93.7845 
z
" style="fill: #ffffff; opacity: 0.8; stroke: #cccccc; stroke-linejoin: miter"/>
    </g>
    <g id="line2d_28">
     <path d="M 345.941875 54.570438 
L 355.941875 54.570438 
L 365.941875 54.570438 
" style="fill: none; stroke: #1f77b4; stroke-width: 1.5; stroke-linecap: square"/>
    </g>
    <g id="text_15">
     <!-- v1 -->
     <g transform="translate(373.941875 58.070438)scale(0.1 -0.1)">
      <defs>
       <path id="DejaVuSans-76" d="M 191 3500 
L 800 3500 
L 1894 563 
L 2988 3500 
L 3597 3500 
L 2284 0 
L 1503 0 
L 191 3500 
z
" transform="scale(0.015625)"/>
      </defs>
      <use xlink:href="#DejaVuSans-76"/>
      <use xlink:href="#DejaVuSans-31" x="59.179688"/>
     </g>
    </g>
    <g id="line2d_29">
     <path d="M 345.941875 69.248563 
L 355.941875 69.248563 
L 365.941875 69.248563 
" style="fill: none; stroke: #ff7f0e; stroke-width: 1.5; stroke-linecap: square"/>
    </g>
    <g id="text_16">
     <!-- v2 -->
     <g transform="translate(373.941875 72.748563)scale(0.1 -0.1)">
      <use xlink:href="#DejaVuSans-76"/>
      <use xlink:href="#DejaVuSans-32" x="59.179688"/>
     </g>
    </g>
    <g id="line2d_30">
     <path d="M 345.941875 83.926688 
L 355.941875 83.926688 
L 365.941875 83.926688 
" style="fill: none; stroke-dasharray: 5.55,2.4; stroke-dashoffset: 0; stroke: #000000; stroke-width: 1.5"/>
    </g>
    <g id="text_17">
     <!-- I_syn2 -->
     <g transform="translate(373.941875 87.426688)scale(0.1 -0.1)">
      <defs>
       <path id="DejaVuSans-49" d="M 628 4666 
L 1259 4666 
L 1259 0 
L 628 0 
L 628 4666 
z
" transform="scale(0.015625)"/>
       <path id="DejaVuSans-5f" d="M 3263 -1063 
L 3263 -1509 
L -63 -1509 
L -63 -1063 
L 3263 -1063 
z
" transform="scale(0.015625)"/>
       <path id="DejaVuSans-79" d="M 2059 -325 
Q 1816 -950 1584 -1140 
Q 1353 -1331 966 -1331 
L 506 -1331 
L 506 -850 
L 844 -850 
Q 1081 -850 1212 -737 
Q 1344 -625 1503 -206 
L 1606 56 
L 191 3500 
L 800 3500 
L 1894 763 
L 2988 3500 
L 3597 3500 
L 2059 -325 
z
" transform="scale(0.015625)"/>
       <path id="DejaVuSans-6e" d="M 3513 2113 
L 3513 0 
L 2938 0 
L 2938 2094 
Q 2938 2591 2744 2837 
Q 2550 3084 2163 3084 
Q 1697 3084 1428 2787 
Q 1159 2491 1159 1978 
L 1159 0 
L 581 0 
L 581 3500 
L 1159 3500 
L 1159 2956 
Q 1366 3272 1645 3428 
Q 1925 3584 2291 3584 
Q 2894 3584 3203 3211 
Q 3513 2838 3513 2113 
z
" transform="scale(0.015625)"/>
      </defs>
      <use xlink:href="#DejaVuSans-49"/>
      <use xlink:href="#DejaVuSans-5f" x="29.492188"/>
      <use xlink:href="#DejaVuSans-73" x="79.492188"/>
      <use xlink:href="#DejaVuSans-79" x="131.591797"/>
      <use xlink:href="#DejaVuSans-6e" x="190.771484"/>
      <use xlink:href="#DejaVuSans-32" x="254.150391"/>
     </g>
    </g>
   </g>
  </g>
 </g>
 <defs>
  <clipPath id="pcdc02610bd">
   <rect x="57.6" y="41.472" width="357.12" height="266.112"/>
  </clipPath>
 </defs>
</svg>
